<?xml version="1.0" encoding="utf-8"?>
<!-- Generator: Adobe Illustrator 26.1.0, SVG Export Plug-In . SVG Version: 6.00 Build 0)  -->
<svg version="1.1" id="Lager_1" xmlns="http://www.w3.org/2000/svg" xmlns:xlink="http://www.w3.org/1999/xlink" x="0px" y="0px"
	 viewBox="0 0 24 24" style="enable-background:new 0 0 24 24;" xml:space="preserve">
<style type="text/css">
	.st0{fill:#FFFFFF;}
</style>
<g>
	<path class="st0" d="M12,2c2.7,0,3.1,0,4.1,0.1c1.1,0,1.8,0.2,2.4,0.5c0.7,0.3,1.2,0.6,1.8,1.2c0.5,0.5,0.9,1.1,1.2,1.8
		c0.2,0.6,0.4,1.4,0.5,2.4C22,8.9,22,9.3,22,12s0,3.1-0.1,4.1c0,1.1-0.2,1.8-0.5,2.4c-0.3,0.7-0.6,1.3-1.2,1.8
		c-0.5,0.5-1.1,0.9-1.8,1.2c-0.6,0.2-1.4,0.4-2.4,0.5C15.1,22,14.7,22,12,22s-3.1,0-4.1-0.1c-1.1,0-1.8-0.2-2.4-0.5
		c-0.7-0.3-1.3-0.6-1.8-1.2c-0.5-0.5-0.9-1.1-1.2-1.8c-0.2-0.6-0.4-1.4-0.5-2.4C2,15.1,2,14.7,2,12s0-3.1,0.1-4.1s0.2-1.8,0.5-2.4
		c0.3-0.7,0.6-1.3,1.2-1.8c0.5-0.5,1.1-0.9,1.8-1.2c0.6-0.2,1.4-0.4,2.4-0.5C8.9,2,9.3,2,12,2z M12,7c-2.8,0-5,2.2-5,5s2.2,5,5,5
		s5-2.2,5-5S14.8,7,12,7z M18.5,6.7c0-0.7-0.6-1.2-1.2-1.2S16,6.1,16,6.7S16.6,8,17.2,8S18.5,7.4,18.5,6.7z M12,9c1.7,0,3,1.3,3,3
		s-1.3,3-3,3s-3-1.3-3-3S10.3,9,12,9z"/>
</g>
</svg>
