<?xml version="1.0" encoding="UTF-8"?><svg id="a" xmlns="http://www.w3.org/2000/svg" viewBox="0 0 201.77 71.3"><defs><style>.n{fill:#fff;}</style></defs><g id="b" transform="translate(-152.78244,54.674649)"><path id="c" class="n" d="M49.62,38.79c.19,.03,.38,.03,.57,.03h.03c.47,0,.91-.28,1.1-.72l4.56-10.32c.19-.41,.13-.88-.16-1.26-.03-.03-.06-.09-.09-.13l1.26-2.58c4.09-1.48,3.84-6.86,3.84-7.08,0-.25-.13-.5-.28-.72-.28-.35-7.11-8.24-24.99-8.24-.94,0-1.95,.03-2.93,.06-20.86,.98-24.04,6.92-24.45,9.44-.44,2.89,1.98,4.75,2.08,4.82,.06,.06,.16,.09,.22,.13,.47,.22,.91,.38,1.39,.47l2.23,5.29c-.28,1.76-.06,3.62,.63,5.07,.6,1.26,1.51,2.17,2.64,2.68l14.7,34.84c.18,.43,.6,.73,1.07,.75h.03c.47,0,.88-.25,1.1-.69l5.76-11.89c.32-.22,.63-.44,.94-.69,1.45-1.16,2.2-2.58,2.3-4.22,.03-.54-.03-1.04-.13-1.54l6.58-13.47Zm-14.7,6.86c.13-.06,.25-.13,.35-.22,.28-.25,.44-.66,.38-1.04-.1-.69-.06-1.54,.03-1.95,.69,.09,2.11,.47,2.52,1.26,.31,.6-.03,1.45-.38,2.08-.03,.1-.09,.16-.16,.25-.22,.38-.44,.72-.66,1.04-.25,.38-.5,.72-.79,1.04-1.57,1.92-3.24,2.93-4.31,2.93-.38,0-.54-.16-.6-.19-.06-.03-.09-.09-.13-.13-.5-.5-.66-1.07-.57-1.39,.16-.47,.88-.6,1.16-.63,.5-.06,.91-.41,1.04-.88,.06-.25,.06-.5-.03-.75-.09-.22-.22-.41-.41-.54-.16-.13-.32-.25-.47-.35-1.39-1.07-2.68-2.23-3.24-2.89,.69-.63,1.42-1.23,1.89-1.54,.91,1.2,2.68,3.34,2.93,3.65,.06,.06,.09,.13,.16,.16,.41,.19,.88,.28,1.29,.09h0Zm-4.44,7.49s0-.03,0,0c.44,.19,.91,.28,1.45,.28,2.11,0,4.59-1.7,6.64-4.37,.38,.41,1.42,1.64,1.92,3.05,.19,.54,.31,1.1,.28,1.67-.06,.94-.5,1.73-1.38,2.45-.41,.33-.84,.63-1.29,.91-.91,.54-1.76,.82-2.52,.82-1.61,0-2.99-1.23-4.22-2.49-.66-.63-.91-1.38-.88-2.33h0Zm9.63-5.95c-.06-.06-.16-.13-.22-.19,.03-.03,.03-.06,.06-.09,.94-1.67,1.07-3.15,.41-4.41-1.1-2.08-4-2.49-4.59-2.55-.69-.13-1.35,.09-1.82,.63-.19,.22-.35,.5-.47,.79-.6-.75-1.13-1.42-1.29-1.67-.28-.44-.76-.69-1.29-.69-1.29,0-3.34,1.86-4.44,2.99-.28,.32-.44,.69-.41,1.13,.03,.35,.09,1.29,3.27,3.93-.47,.38-.79,.88-.98,1.45-.25,.75-.19,1.57,.16,2.36-.22,.69-.38,1.42-.41,2.11-.06,1.64,.44,3.05,1.51,4.12,1.54,1.54,3.4,3.21,5.95,3.21,.32,0,.66-.03,1.01-.1l-3.37,6.96-12.9-30.62c.44,.06,.88,.13,1.32,.13,2.52,0,4.44-1.29,5.85-3.96,.69-.03,1.67-.32,2.52-5.04,.38,.13,.75,.22,1.13,.22,1.67,0,3.05-1.32,3.46-3.27,.22-1.01-.06-2.01-.79-2.93-.75-.94-1.95-1.7-3.46-2.27h.03c3.53,0,5.89-.54,7.77-.97,1.79-.41,3.08-.66,4.41-.38,1.6,.35,3.56,1.61,5.41,2.83,2.05,1.32,4.15,2.71,6.17,3.08l-.44,.88c-1.01-.47-2.61-1.04-4.18-1.04-1.26,0-2.36,.38-3.21,1.1-.19,.16-.38,.35-.57,.54-.76-.35-1.7-.54-2.74-.54-2.11,0-4.59,.69-6.92,1.95-1.7,.91-2.61,2.08-2.71,3.49-.19,2.36,2.01,4.25,2.49,4.63,.38,.35,.82,.54,1.32,.54s.94-.19,1.35-.5c.09,.97,.19,1.82,.19,2.11,0,.54,.31,1.23,1.2,1.51,.32,.1,.72,.16,1.23,.16,1.51,0,3.56-.44,3.65-.47,.41-.09,.77-.36,.98-.72,.06-.1,.16-.28,.19-.63,.45,.38,.93,.72,1.45,1.01l-5.51,11.33c-.85-1.26-1.67-2.08-1.76-2.14h0ZM10.44,17.68c.97-6.23,19.98-7.3,22.15-7.4,.94-.03,1.89-.06,2.83-.06,14.73,0,21.43,5.73,22.85,7.08-.03,.47-.09,1.26-.35,2.05-.22,.63-.54,1.26-1.07,1.73-.32,.28-.69,.5-1.13,.6-.18,.04-.36,.06-.54,.06h-.03c-1.6,0-3.81-1.45-5.95-2.83-.72-.47-1.48-.97-2.23-1.42-1.32-.79-2.68-1.45-4-1.73-.57-.13-1.15-.19-1.73-.19-.66,0-1.32,.09-1.98,.19-.57,.09-1.13,.22-1.76,.38-1.89,.44-4,.91-7.24,.91-1.92,0-3.96-.16-6.23-.54-.25-.03-.5-.06-.76-.06-1.86,0-3.43,1.07-4.94,2.08-1.54,1.04-2.99,2.01-4.72,2.01h-.19c-.47-.03-.94-.09-1.42-.25-.19-.06-.35-.13-.54-.19-.19-.16-.6-.57-.85-1.1-.18-.42-.24-.87-.19-1.32h0Zm34.9,10.67c.22,.72,.06,1.26-.13,1.54-.19,.25-.5,.32-.88,.22-.2-.03-.4-.11-.57-.22-.19-.09-.38-.13-.6-.13-.28,0-.54,.13-.76,.32-.37,.33-.51,.85-.35,1.32,.66,1.82,1.23,3.78,1.35,4.75-.76,.13-1.76,.28-2.42,.28-.13-1.51-.44-4.28-.5-4.63-.06-.54-.47-.98-1.01-1.04-.54-.09-1.07,.19-1.29,.66-.28,.63-.76,1.32-1.1,1.64-.54-.47-1.51-1.51-1.45-2.42,.06-.66,.82-1.2,1.45-1.54,1.98-1.07,4.09-1.67,5.79-1.67,.44,0,.85,.03,1.2,.13,.5,.13,.88,.32,1.07,.57,.13,.06,.16,.13,.19,.22h0Zm1.82,2.99c.72-.94,.91-2.3,.5-3.65-.06-.19-.13-.35-.19-.54,.13-.13,.22-.22,.35-.32,.41-.35,.94-.5,1.64-.5,1.13,0,2.33,.44,3.12,.82,.35,.16,.6,.32,.76,.38l-3.87,8.78c-.38-.09-.72-.25-1.1-.47-.72-.44-1.45-1.07-2.27-1.89-.38-.38-.63-.88-.72-1.45,.72-.19,1.32-.57,1.79-1.16Zm-19.29-6.01l-.19,1.13c-.38-.6-.85-1.13-1.35-1.61,.16-.47,0-1.01-.41-1.32-.44-.31-1.01-.35-1.45,0,0,0-.03,0-.03,.03-1.07-.6-1.98-.88-2.05-.91h-.03c0-.38,.06-.72,.22-.98,.35-.57,1.29-.69,2.05-.69,3.68,0,6.32,1.2,7.24,2.3,.25,.32,.38,.63,.32,.88-.19,.88-.69,1.35-1.1,1.35-.32,0-.69-.25-1.01-.72-.28-.41-.79-.6-1.29-.47-.48,.12-.84,.52-.91,1.01Zm-8.12-4.75c.47-.32,.91-.63,1.32-.88-.19,.19-.38,.41-.54,.63-.47,.72-.63,1.54-.6,2.33-1.54,.19-3.49,.72-4.69,2.14l-.79-1.86c2.11-.22,3.78-1.35,5.29-2.36h0Zm-3.24,7.21c.06-.32,.16-.63,.28-.91,.5-1.26,2.3-1.67,3.59-1.82,.57-.06,1.01-.06,1.2-.06h.22c.22,.1,.75,.28,1.35,.6,.41,.22,.85,.5,1.29,.82,.35,.28,.66,.57,.94,.91,.19,.22,.32,.47,.44,.72,.25,.57,.32,1.17,.19,1.82-.07,.3-.17,.6-.28,.88-.03,.09-.09,.19-.13,.25-.19,.41-.38,.79-.6,1.1-1.2,1.92-2.42,2.2-3.43,2.2-.79,0-1.64-.19-2.49-.44l-.57-.19c-.44-.13-.82-.38-1.13-.72-.23-.26-.42-.56-.57-.88-.22-.44-.35-.94-.41-1.48-.19-.88-.13-1.86,.09-2.8Z"/><path id="d" class="n" d="M68.42,38.42c-.09-.66-.69-1.13-1.35-1.07l-9.66,1.16c-.66,.09-1.13,.69-1.07,1.35,.06,.63,.6,1.07,1.2,1.07h.16l9.66-1.16c.65-.06,1.14-.64,1.08-1.29,0-.02,0-.04,0-.06Z"/><path id="e" class="n" d="M51.94,54.86c-.47-.46-1.22-.48-1.7-.03-.47,.47-.48,1.22-.03,1.7l5.13,5.25c.25,.25,.57,.38,.88,.38s.6-.13,.85-.35c.46-.47,.48-1.22,.03-1.7l-5.16-5.25h0Z"/><path id="f" class="n" d="M46.77,62.31c-.35-.57-1.1-.75-1.67-.38-.57,.35-.76,1.1-.38,1.67l4.37,7.05c.22,.38,.63,.57,1.04,.57,.22,0,.44-.06,.63-.19,.57-.35,.76-1.1,.38-1.67l-4.37-7.05Z"/><path id="g" class="n" d="M60.7,50.18l-5.22-2.2c-.6-.25-1.32,.03-1.57,.63-.25,.63,.03,1.32,.63,1.57l5.22,2.2c.16,.06,.32,.1,.47,.1,.49,0,.92-.3,1.1-.76,.28-.57,0-1.29-.63-1.54Z"/><path id="h" class="n" d="M15.57,57.73l-6.45,7.18c-.44,.5-.41,1.26,.1,1.7,.22,.22,.54,.32,.82,.32,.35,0,.66-.13,.91-.41l6.45-7.17c.44-.5,.41-1.26-.09-1.7-.54-.44-1.29-.41-1.73,.1h0Z"/><path id="i" class="n" d="M8.53,44.24c.66,0,1.2-.53,1.2-1.19h0c0-.66-.54-1.23-1.2-1.23l-7.33-.06c-.66,0-1.2,.53-1.2,1.19H0c0,.66,.54,1.23,1.2,1.23l7.33,.06h0Z"/><path id="j" class="n" d="M1.81,33.12l6.04,1.82c.13,.03,.22,.06,.35,.06,.54,0,1.01-.35,1.17-.85,.19-.63-.16-1.32-.82-1.51l-6.04-1.86c-.63-.19-1.32,.16-1.51,.82-.19,.63,.19,1.32,.82,1.51h0Z"/><path id="k" class="n" d="M12.81,49.59c-.25-.62-.95-.91-1.57-.66h0l-6.7,2.77c-.62,.25-.91,.95-.66,1.57h0c.19,.48,.63,.76,1.13,.76,.16,0,.32-.03,.47-.09l6.7-2.77c.6-.22,.88-.94,.63-1.57Z"/></g><path id="l" class="n" d="M104.44,11.88c0,1.82-.34,3.44-1.03,4.88-.69,1.43-1.67,2.65-2.93,3.65-1.26,1-2.77,1.77-4.53,2.3-1.76,.53-3.7,.8-5.82,.8-.26,0-.48-.07-.66-.21-.19-.14-.28-.36-.28-.64,0-.23,.08-.42,.24-.59,.17-.17,.37-.25,.61-.25,1.89,0,3.62-.22,5.18-.66,1.56-.43,2.9-1.08,4.01-1.92,1.11-.85,1.98-1.89,2.59-3.12,.62-1.23,.92-2.65,.92-4.24s-.36-3.07-1.07-4.33c-.71-1.26-1.71-2.33-3-3.2-1.29-.87-2.82-1.53-4.6-1.98-1.78-.45-3.74-.67-5.87-.67-2.02,0-3.96,.16-5.85,.49-1.89,.33-3.66,.8-5.31,1.4-1.65,.6-3.16,1.32-4.52,2.17-1.36,.84-2.53,1.76-3.49,2.77s-1.72,2.08-2.27,3.24c-.54,1.15-.81,2.34-.81,3.57,0,1.08,.19,2.03,.56,2.84,.38,.81,.88,1.49,1.5,2.04,.62,.55,1.34,.96,2.15,1.23,.81,.27,1.66,.41,2.55,.41,1.05,0,1.99-.11,2.81-.34,.82-.23,1.51-.48,2.07-.75,.56-.27,1-.52,1.3-.75,.3-.23,.47-.37,.5-.4,.16-.16,.36-.24,.58-.24,.23,0,.43,.09,.6,.26,.17,.17,.26,.37,.26,.6,0,.26-.09,.46-.27,.61-.03,.03-.22,.19-.57,.48-.35,.28-.86,.59-1.53,.93-.67,.34-1.48,.64-2.45,.91-.96,.27-2.06,.41-3.29,.41-1.13,0-2.2-.19-3.23-.56-1.03-.38-1.93-.92-2.7-1.63-.78-.71-1.39-1.58-1.85-2.59-.46-1.01-.69-2.16-.69-3.43,0-1.4,.29-2.75,.87-4.05,.58-1.3,1.39-2.52,2.44-3.65,1.04-1.13,2.29-2.17,3.75-3.11,1.46-.94,3.07-1.74,4.84-2.41,1.78-.67,3.68-1.19,5.71-1.56s4.13-.55,6.31-.55c2.39,0,4.58,.27,6.58,.81,2,.54,3.71,1.32,5.15,2.34,1.44,1.02,2.55,2.27,3.35,3.73,.79,1.46,1.19,3.13,1.19,4.99h0Zm-13.39-5.36c.22,0,.42,.08,.6,.24,.17,.16,.26,.36,.26,.62,0,.15-.04,.29-.12,.41-.08,.12-.18,.23-.3,.34-.84,.66-1.52,1.38-2.02,2.14-.5,.77-.89,1.59-1.15,2.47-.26,.88-.44,1.81-.52,2.81-.08,.99-.12,2.03-.12,3.11v2.84c0,1.86-.17,3.63-.5,5.31-.33,1.67-.89,3.14-1.68,4.4-.79,1.26-1.84,2.26-3.17,3.01-1.32,.74-2.98,1.12-4.98,1.12-.9,0-1.79-.11-2.65-.33-.86-.22-1.68-.53-2.44-.95-.77-.41-1.47-.92-2.12-1.52-.65-.6-1.2-1.28-1.67-2.03-.03-.06-.06-.13-.09-.22-.03-.08-.05-.16-.05-.24,0-.21,.08-.4,.24-.57,.16-.17,.37-.26,.62-.26,.15,0,.29,.04,.42,.12,.13,.08,.24,.18,.33,.3,.96,1.34,2.05,2.34,3.27,3.01,1.22,.67,2.6,1,4.15,1,1.77,0,3.22-.33,4.34-.98,1.12-.65,2-1.55,2.64-2.68,.64-1.14,1.08-2.46,1.31-3.98,.23-1.52,.35-3.13,.35-4.85v-2.86c0-1.01,.05-2.05,.14-3.12,.09-1.07,.3-2.13,.62-3.16,.32-1.03,.79-2,1.4-2.93,.61-.93,1.43-1.74,2.46-2.45,.06-.03,.14-.06,.23-.09,.09-.03,.16-.04,.23-.04h0Zm18.59,9.91c0,.57-.2,1.06-.6,1.45-.4,.4-.88,.6-1.45,.6s-1.05-.2-1.45-.6c-.4-.4-.6-.88-.6-1.45,0-.29,.05-.55,.16-.8,.1-.25,.25-.47,.44-.66,.19-.19,.41-.33,.66-.44,.25-.1,.51-.16,.8-.16s.55,.05,.8,.16c.25,.1,.47,.25,.66,.44,.19,.19,.33,.41,.44,.66,.1,.25,.16,.51,.16,.8h0Zm-3.65,13.21c0-2.16,.14-4.32,.41-6.47,.03-.21,.12-.39,.28-.55,.16-.16,.37-.24,.62-.24,.22,0,.41,.09,.56,.26,.15,.17,.23,.37,.23,.6,0,.09-.02,.36-.06,.81-.04,.45-.08,.99-.13,1.62-.05,.62-.1,1.28-.13,1.98-.04,.7-.06,1.34-.06,1.93,0,.79,.08,1.44,.24,1.92,.16,.49,.36,.87,.61,1.14,.25,.27,.51,.45,.79,.54,.28,.09,.54,.13,.8,.13,.42,0,.86-.15,1.31-.45,.45-.3,.91-.72,1.38-1.27,.47-.54,.95-1.19,1.43-1.95,.48-.76,.96-1.61,1.42-2.54,.07-.15,.18-.26,.31-.35,.14-.08,.29-.12,.45-.12,.24,0,.44,.09,.6,.27,.16,.18,.24,.38,.24,.59,0,.15-.03,.28-.09,.38-.18,.35-.4,.77-.67,1.26-.27,.5-.58,1.01-.92,1.53-.35,.53-.73,1.05-1.14,1.56-.41,.52-.85,.99-1.32,1.4-.46,.41-.95,.75-1.46,1-.51,.26-1.03,.38-1.56,.38-.68,0-1.27-.14-1.78-.42-.51-.29-.94-.67-1.3-1.15-.35-.48-.61-1.05-.78-1.7-.18-.66-.26-1.36-.26-2.11h0Zm2.39-13.21c0-.21-.08-.39-.24-.55-.16-.16-.34-.24-.55-.24-.21,0-.39,.08-.54,.24-.15,.16-.23,.34-.23,.55s.08,.39,.23,.54c.15,.15,.33,.23,.54,.23s.39-.08,.55-.23c.16-.15,.24-.33,.24-.54Zm17.85,21.03c.09,1.22,.13,2.67,.13,4.37,0,1.82-.11,3.49-.34,5.01-.23,1.53-.56,2.84-.99,3.95-.44,1.1-.98,1.96-1.62,2.58-.65,.62-1.39,.92-2.23,.92-.42,0-.82-.1-1.2-.29-.38-.2-.7-.48-.98-.84-.28-.36-.5-.79-.66-1.28-.16-.5-.24-1.05-.24-1.67,0-.92,.11-1.89,.33-2.91,.22-1.02,.57-2.09,1.07-3.2,.5-1.11,1.15-2.27,1.96-3.48,.81-1.21,1.81-2.47,3-3.78-.06-.65-.14-1.25-.24-1.8-.1-.55-.22-1.03-.37-1.44-.15-.41-.33-.72-.53-.95-.2-.23-.45-.34-.73-.34-.09,0-.19,.02-.31,.05-.34,.41-.66,.72-.94,.95-.28,.22-.53,.4-.75,.52-.22,.12-.42,.19-.58,.22-.16,.03-.27,.05-.35,.05-.26,0-.5-.07-.73-.21-.23-.14-.35-.41-.35-.8,0-.14,.05-.31,.15-.52,.1-.21,.26-.43,.48-.66,.22-.23,.52-.45,.89-.66,.37-.2,.82-.35,1.34-.46,.99-1.06,1.77-2.04,2.32-2.94,.56-.89,.84-1.73,.84-2.51,0-.68-.21-1.22-.63-1.62-.42-.41-.95-.61-1.6-.61-.9,0-1.8,.42-2.71,1.27-.9,.84-1.71,2-2.44,3.49-.16,.33-.43,.49-.79,.49-.26,0-.46-.09-.6-.27-.15-.18-.23-.37-.23-.59,0-.13,.03-.25,.09-.36,.89-1.82,1.91-3.23,3.07-4.24,1.16-1.01,2.37-1.51,3.63-1.51,.51,0,1,.09,1.47,.27,.47,.18,.89,.44,1.25,.78,.36,.34,.65,.75,.86,1.24,.21,.49,.31,1.05,.31,1.68,0,.52-.07,1.03-.21,1.52-.14,.49-.34,.96-.58,1.42-.24,.46-.52,.9-.83,1.32-.32,.42-.64,.83-.97,1.22,.41,.18,.74,.44,1,.77,.26,.33,.48,.7,.66,1.1,.17,.41,.3,.83,.39,1.26,.09,.43,.16,.85,.23,1.26,.57-.62,1.16-1.27,1.78-1.96,.62-.69,1.21-1.39,1.78-2.1,.57-.7,1.1-1.4,1.57-2.08,.47-.68,.84-1.33,1.11-1.93,.08-.17,.18-.29,.32-.37,.14-.08,.28-.12,.45-.12,.26,0,.46,.09,.62,.26,.16,.17,.24,.36,.24,.57,0,.12-.02,.24-.07,.34-.33,.75-.79,1.56-1.39,2.42-.6,.86-1.26,1.72-1.96,2.59-.71,.86-1.43,1.7-2.16,2.49-.74,.79-1.41,1.5-2.03,2.12h0Zm-1.6,1.8c-.95,1.16-1.73,2.25-2.34,3.27-.62,1.02-1.11,1.98-1.48,2.88-.37,.9-.62,1.74-.78,2.52-.15,.77-.23,1.48-.23,2.13,0,.77,.14,1.38,.41,1.85,.27,.46,.6,.7,.99,.7,.53,0,1-.27,1.43-.81,.43-.54,.79-1.28,1.09-2.22,.3-.94,.53-2.05,.7-3.32,.17-1.28,.25-2.65,.25-4.13,0-.39,0-.83-.01-1.32,0-.49-.02-1-.03-1.55h0Zm18.17-1.8c.09,1.22,.13,2.67,.13,4.37,0,1.82-.11,3.49-.34,5.01-.23,1.53-.56,2.84-.99,3.95-.44,1.1-.98,1.96-1.62,2.58-.65,.62-1.39,.92-2.23,.92-.42,0-.82-.1-1.2-.29-.38-.2-.7-.48-.98-.84-.28-.36-.5-.79-.66-1.28-.16-.5-.24-1.05-.24-1.67,0-.92,.11-1.89,.33-2.91,.22-1.02,.57-2.09,1.07-3.2,.5-1.11,1.15-2.27,1.96-3.48,.81-1.21,1.81-2.47,3-3.78-.06-.65-.14-1.25-.24-1.8-.1-.55-.22-1.03-.37-1.44-.15-.41-.33-.72-.53-.95-.2-.23-.45-.34-.73-.34-.09,0-.19,.02-.31,.05-.34,.41-.66,.72-.94,.95-.28,.22-.53,.4-.75,.52-.22,.12-.42,.19-.58,.22-.16,.03-.27,.05-.35,.05-.26,0-.5-.07-.73-.21-.23-.14-.35-.41-.35-.8,0-.14,.05-.31,.15-.52,.1-.21,.26-.43,.48-.66,.22-.23,.52-.45,.89-.66,.37-.2,.82-.35,1.34-.46,.99-1.06,1.77-2.04,2.32-2.94,.56-.89,.84-1.73,.84-2.51,0-.68-.21-1.22-.63-1.62-.42-.41-.95-.61-1.6-.61-.9,0-1.8,.42-2.71,1.27-.9,.84-1.71,2-2.44,3.49-.16,.33-.43,.49-.79,.49-.26,0-.46-.09-.6-.27-.15-.18-.23-.37-.23-.59,0-.13,.03-.25,.09-.36,.89-1.82,1.91-3.23,3.07-4.24,1.16-1.01,2.37-1.51,3.63-1.51,.51,0,1,.09,1.47,.27,.47,.18,.89,.44,1.25,.78,.36,.34,.65,.75,.86,1.24,.21,.49,.31,1.05,.31,1.68,0,.52-.07,1.03-.21,1.52-.14,.49-.34,.96-.58,1.42-.24,.46-.52,.9-.83,1.32-.32,.42-.64,.83-.97,1.22,.41,.18,.74,.44,1,.77,.26,.33,.48,.7,.66,1.1,.17,.41,.3,.83,.39,1.26,.09,.43,.16,.85,.23,1.26,.57-.62,1.16-1.27,1.78-1.96,.62-.69,1.21-1.39,1.78-2.1,.57-.7,1.1-1.4,1.57-2.08,.47-.68,.84-1.33,1.11-1.93,.08-.17,.18-.29,.32-.37,.14-.08,.28-.12,.45-.12,.26,0,.46,.09,.62,.26,.16,.17,.24,.36,.24,.57,0,.12-.02,.24-.07,.34-.33,.75-.79,1.56-1.39,2.42-.6,.86-1.26,1.72-1.96,2.59-.71,.86-1.43,1.7-2.16,2.49-.74,.79-1.41,1.5-2.03,2.12h0Zm-1.6,1.8c-.95,1.16-1.73,2.25-2.34,3.27-.62,1.02-1.11,1.98-1.48,2.88-.37,.9-.62,1.74-.78,2.52-.15,.77-.23,1.48-.23,2.13,0,.77,.14,1.38,.41,1.85,.27,.46,.6,.7,.99,.7,.53,0,1-.27,1.43-.81,.43-.54,.79-1.28,1.09-2.22,.3-.94,.53-2.05,.7-3.32,.17-1.28,.25-2.65,.25-4.13,0-.39,0-.83-.01-1.32,0-.49-.02-1-.03-1.55h0Zm10.3-7.62c.32,.43,.72,.78,1.22,1.05,.5,.26,1.1,.39,1.83,.39,.74,0,1.4-.18,2-.53,.6-.35,1.15-.82,1.65-1.39,.5-.57,.94-1.21,1.33-1.92,.39-.7,.74-1.41,1.06-2.12,.08-.16,.18-.29,.32-.37,.14-.08,.28-.12,.45-.12,.26,0,.46,.09,.62,.27,.16,.18,.24,.38,.24,.59,0,.08,0,.14-.02,.19-.02,.05-.04,.11-.07,.17-1.04,2.28-2.17,4-3.39,5.16-1.22,1.16-2.61,1.75-4.15,1.78-.99,0-1.85-.19-2.57-.57-.72-.38-1.31-.88-1.78-1.49-.46-.61-.81-1.3-1.03-2.06-.23-.77-.34-1.53-.34-2.3s.09-1.47,.28-2.12c.19-.65,.46-1.21,.81-1.69,.35-.48,.78-.86,1.26-1.13,.49-.27,1.02-.41,1.61-.41,.34,0,.69,.07,1.02,.21,.34,.14,.64,.34,.91,.61,.27,.26,.49,.58,.65,.96,.17,.38,.25,.8,.25,1.29,0,.62-.1,1.19-.31,1.74-.21,.54-.5,1.04-.87,1.51-.37,.46-.81,.89-1.32,1.28-.51,.39-1.06,.73-1.65,1.02h0Zm-.67-1.46c.46-.2,.89-.45,1.27-.75,.38-.3,.71-.63,.98-.99,.27-.36,.48-.74,.63-1.14,.15-.4,.23-.8,.23-1.2,0-.45-.11-.79-.34-1.02-.23-.23-.49-.35-.79-.35-.41,0-.75,.11-1.04,.34-.29,.22-.52,.52-.7,.88-.18,.36-.31,.76-.4,1.2-.08,.44-.12,.88-.12,1.32,0,.27,.03,.56,.08,.86,.06,.3,.12,.59,.19,.86h0Zm12.12-5.32c-.06,.41-.13,.79-.23,1.14-.09,.35-.18,.66-.26,.92-.08,.26-.15,.48-.21,.64-.06,.17-.1,.26-.12,.27-.15,.34-.41,.52-.78,.52-.21,0-.41-.08-.59-.24-.18-.16-.27-.36-.27-.6,0-.09,.02-.16,.05-.2,.03-.04,.08-.13,.13-.27,.06-.14,.14-.36,.23-.68,.09-.31,.2-.8,.34-1.46-.26,0-.52,0-.79-.02-.27-.02-.52-.07-.75-.16-.23-.09-.43-.23-.58-.43-.15-.19-.23-.46-.23-.81,0-.26,.07-.6,.22-1.03,.14-.44,.33-.87,.57-1.29,.24-.42,.51-.78,.81-1.09,.3-.31,.6-.47,.9-.47,.35,0,.63,.13,.84,.38,.22,.26,.39,.57,.51,.94,.12,.37,.21,.76,.26,1.16,.06,.4,.08,.76,.08,1.06,.26,0,.51,0,.75,0,.25,0,.49-.01,.71-.01,.86,0,1.51,.19,1.96,.56,.45,.38,.67,.99,.67,1.85,0,.34-.02,.7-.06,1.08-.05,.38-.1,.76-.16,1.16-.06,.4-.11,.8-.16,1.19-.04,.39-.06,.77-.06,1.15,0,.54,.07,.99,.22,1.34,.15,.35,.34,.64,.56,.84,.23,.21,.47,.36,.72,.44,.26,.08,.49,.12,.7,.12,.65,0,1.26-.21,1.83-.63,.57-.42,1.09-.93,1.57-1.52,.48-.59,.92-1.22,1.3-1.88,.38-.66,.7-1.24,.96-1.74,.07-.14,.18-.24,.31-.32,.14-.07,.28-.11,.43-.11,.27,0,.48,.09,.63,.26,.15,.17,.22,.36,.22,.57,0,.15-.03,.29-.09,.41-.34,.62-.75,1.31-1.2,2.09s-.98,1.5-1.57,2.17c-.58,.68-1.24,1.25-1.97,1.71-.73,.47-1.53,.7-2.4,.7-.54,0-1.05-.1-1.53-.3-.48-.2-.9-.5-1.25-.88-.35-.38-.64-.85-.84-1.42-.21-.56-.32-1.2-.32-1.91,0-.75,.08-1.5,.23-2.24,.15-.74,.23-1.45,.23-2.13,0-.29-.06-.5-.19-.64-.13-.14-.41-.22-.84-.22h-.69c-.25,0-.52,0-.8,.02h0Zm-2.5-1.67h.99c0-.1,0-.24,0-.42,0-.18-.02-.34-.05-.51-.02-.17-.05-.31-.09-.43-.04-.12-.08-.18-.12-.18-.05,0-.1,.06-.17,.17-.07,.11-.14,.25-.22,.41-.07,.16-.14,.33-.2,.51-.06,.18-.11,.33-.14,.45h0Zm17.8-6.76c0,.57-.2,1.06-.6,1.45-.4,.4-.88,.6-1.45,.6s-1.05-.2-1.45-.6c-.4-.4-.6-.88-.6-1.45,0-.29,.05-.55,.16-.8,.1-.25,.25-.47,.44-.66,.19-.19,.41-.33,.66-.44,.25-.1,.51-.16,.8-.16s.55,.05,.8,.16c.25,.1,.47,.25,.66,.44,.19,.19,.33,.41,.44,.66,.1,.25,.16,.51,.16,.8Zm-3.65,13.21c0-2.16,.14-4.32,.41-6.47,.03-.21,.12-.39,.28-.55,.16-.16,.37-.24,.62-.24,.22,0,.41,.09,.56,.26,.15,.17,.23,.37,.23,.6,0,.09-.02,.36-.06,.81-.04,.45-.08,.99-.13,1.62-.05,.62-.1,1.28-.13,1.98-.04,.7-.06,1.34-.06,1.93,0,.79,.08,1.44,.24,1.92,.16,.49,.36,.87,.61,1.14,.25,.27,.51,.45,.79,.54,.28,.09,.54,.13,.8,.13,.42,0,.86-.15,1.31-.45,.45-.3,.91-.72,1.38-1.27,.47-.54,.95-1.19,1.43-1.95,.48-.76,.96-1.61,1.42-2.54,.07-.15,.18-.26,.31-.35,.14-.08,.29-.12,.45-.12,.24,0,.44,.09,.6,.27,.16,.18,.24,.38,.24,.59,0,.15-.03,.28-.09,.38-.18,.35-.4,.77-.67,1.26-.27,.5-.58,1.01-.92,1.53-.35,.53-.73,1.05-1.14,1.56-.41,.52-.85,.99-1.32,1.4-.46,.41-.95,.75-1.46,1s-1.03,.38-1.56,.38c-.68,0-1.27-.14-1.78-.42-.51-.29-.94-.67-1.3-1.15-.35-.48-.61-1.05-.78-1.7-.18-.66-.26-1.36-.26-2.11h0Zm2.39-13.21c0-.21-.08-.39-.24-.55-.16-.16-.34-.24-.55-.24-.21,0-.39,.08-.54,.24-.15,.16-.23,.34-.23,.55,0,.21,.08,.39,.23,.54,.15,.15,.33,.23,.54,.23s.39-.08,.55-.23c.16-.15,.24-.33,.24-.54Zm24.7,11.41c-.06,.12-.19,.37-.37,.75-.19,.38-.43,.82-.72,1.32-.29,.5-.63,1.01-1.02,1.56-.39,.54-.83,1.04-1.31,1.49-.48,.45-1,.82-1.56,1.12s-1.14,.44-1.76,.44c-.87,0-1.6-.28-2.2-.84-.59-.55-1.03-1.25-1.3-2.1-.51,.86-1.12,1.54-1.82,2.04-.71,.5-1.41,.76-2.12,.76-.56,0-1.06-.1-1.51-.3-.45-.2-.84-.49-1.15-.86-.32-.37-.56-.8-.73-1.3-.17-.5-.26-1.04-.26-1.62,0-1.17,.2-2.2,.6-3.1,.4-.9,.9-1.64,1.52-2.24,.62-.6,1.3-1.05,2.04-1.35,.74-.3,1.46-.45,2.15-.45,.46,0,.89,.06,1.28,.19,.39,.13,.72,.26,1,.42,.28,.15,.5,.29,.65,.42,.15,.13,.23,.2,.24,.22,.17,.19,.25,.4,.25,.6,0,.23-.08,.43-.25,.6-.16,.17-.36,.26-.59,.26-.24,0-.44-.08-.6-.25-.03-.03-.1-.08-.2-.17-.11-.08-.25-.17-.43-.26-.18-.09-.4-.17-.64-.24-.25-.07-.53-.1-.84-.1-.47,0-.96,.11-1.49,.32-.53,.21-1.01,.54-1.44,.98-.44,.44-.8,1-1.09,1.67-.29,.67-.44,1.46-.44,2.38,0,.28,.03,.57,.09,.86,.06,.3,.17,.56,.32,.8,.15,.24,.35,.44,.6,.59,.26,.15,.57,.23,.95,.23,.27,0,.58-.09,.93-.27,.35-.18,.69-.46,1.02-.84,.32-.38,.62-.85,.88-1.42,.26-.57,.45-1.25,.55-2.03,.03-.21,.13-.38,.29-.53,.17-.14,.36-.22,.59-.22,.21,0,.4,.08,.55,.25,.16,.17,.24,.35,.26,.56,.02,.29,.05,.69,.09,1.2,.04,.52,.14,1.04,.3,1.55,.16,.51,.39,.95,.71,1.33,.32,.38,.75,.56,1.31,.56,.36,0,.72-.1,1.07-.3,.35-.19,.7-.45,1.03-.78,.34-.32,.66-.69,.97-1.1,.31-.42,.59-.83,.84-1.25,.26-.42,.48-.83,.68-1.22,.19-.39,.36-.73,.49-1.02,.08-.17,.19-.29,.33-.38,.14-.09,.3-.13,.46-.13,.26,0,.46,.09,.62,.28,.16,.19,.24,.39,.24,.6,0,.11-.02,.21-.07,.32h0Z"/><path id="m" class="n" d="M97.01,55.04c.18,.28,.33,.6,.44,.97,.11,.37,.17,.8,.17,1.3s-.09,.97-.28,1.44c-.19,.46-.43,.85-.74,1.17-.3,.32-.67,.6-1.1,.86-.77,.46-1.68,.79-2.75,.99l.6,.83c.16,.22,.38,.53,.65,.91,.27,.38,.48,.69,.64,.9,.16,.22,.36,.49,.61,.81,.25,.32,.47,.58,.66,.8,.45,.52,.92,.97,1.4,1.33,.48,.37,1.25,.55,2.3,.55,.13,.13,.2,.28,.2,.46,0,.61-.64,.91-1.92,.91s-2.24-.21-2.88-.65h.01c-1.01-.83-2.17-2.47-3.5-4.93l-.96-1.75h-3.2v5.16c0,.14,.16,.26,.49,.36,.32,.1,.65,.19,.97,.28,.32,.09,.48,.19,.48,.31,0,.25-.06,.46-.18,.6-.12,.15-.35,.26-.67,.32-.42,.07-.94,.1-1.58,.1s-1.06,0-1.29,0c-.22,0-.45,0-.68,0-.23,0-.45-.01-.65-.02-.2-.01-.39-.04-.57-.08-.17-.04-.33-.1-.46-.17-.26-.13-.39-.32-.39-.57s.1-.41,.3-.5c.2-.09,.42-.14,.67-.14,.65-.02,.97-.19,.97-.5v-12.25c0-.19-.16-.32-.48-.39-.32-.08-.65-.15-.97-.21-.32-.06-.49-.18-.49-.33s.05-.3,.16-.42c.1-.12,.26-.22,.47-.29,.21-.07,.42-.13,.63-.18,.22-.05,.49-.08,.81-.09,.45-.03,1-.04,1.65-.04h2c1.97,0,3.29,.05,3.97,.15,.68,.1,1.24,.21,1.68,.32,.45,.11,.83,.23,1.14,.38,.32,.15,.62,.33,.93,.55s.55,.47,.73,.74h0Zm-1.99,2.64c0-.54-.11-1.02-.32-1.44-.21-.42-.49-.76-.82-1-.34-.25-.76-.44-1.27-.59-.85-.25-1.79-.38-2.82-.38s-1.7,.1-1.99,.31c-.29,.21-.44,.65-.44,1.33v4.65h3.11c3.03,0,4.55-.96,4.55-2.87Zm13.62,4.1c-.29,0-.61-.11-.97-.34-.36-.23-.54-.52-.54-.89,0-.37,.1-.71,.31-1.03,.21-.32,.48-.59,.81-.79,.33-.2,.72-.38,1.15-.51,.8-.26,1.66-.38,2.58-.38,1.55,0,2.68,.34,3.39,1.03,.7,.69,1.06,1.82,1.06,3.41v3.4c-.01,.82,.09,1.34,.3,1.54,.05,.05,.22,.12,.51,.21,.78,.25,1.18,.43,1.18,.57,0,.81-.83,1.21-2.48,1.21-.62,0-1.03-.14-1.22-.42s-.29-.78-.3-1.51c-.35,.62-.87,1.13-1.58,1.51-.71,.38-1.47,.58-2.27,.58s-1.49-.1-2.05-.31c-.56-.21-1.02-.54-1.37-1.01-.35-.46-.53-.97-.53-1.51s.06-.97,.18-1.3c.12-.33,.28-.6,.46-.83,.18-.22,.44-.42,.76-.6,.32-.18,.62-.32,.89-.42,.28-.1,.64-.2,1.07-.28,.65-.12,1.19-.21,1.63-.26,.44-.05,.66-.08,.68-.09,.05,0,.31-.04,.79-.09,.48-.05,.86-.15,1.14-.31,0-1.46-.2-2.42-.59-2.86-.35-.38-.91-.58-1.71-.58s-1.39,.2-1.78,.6c-.4,.4-.59,1.05-.59,1.92v.26c-.31,.04-.62,.06-.9,.06h0Zm5.58,1.64c-.52,.19-1.12,.32-1.77,.4-.66,.07-1.17,.16-1.55,.26-.38,.1-.69,.22-.94,.37-.58,.34-.88,.92-.88,1.74,0,1.32,.77,1.98,2.31,1.98,1.33,0,2.17-.63,2.53-1.9,.21-.72,.31-1.67,.31-2.85h0Zm12.04,5.4c-.13-.07-.23-.16-.28-.28-.06-.12-.09-.26-.09-.43s.08-.3,.23-.38c.15-.08,.33-.12,.51-.13,.19,0,.36-.07,.51-.18,.15-.11,.23-.29,.23-.54v-7.41h-.81c-.2,0-.37-.07-.5-.21-.13-.14-.2-.35-.2-.62s.07-.45,.2-.53c.13-.08,.37-.12,.73-.12h.59v-1.7c0-1.29,.39-2.29,1.17-2.99,.78-.7,1.85-1.05,3.2-1.05,1.11,0,1.91,.22,2.4,.66,.28,.25,.43,.57,.43,.97,0,.94-.47,1.41-1.42,1.41-.82,0-1.24-.47-1.24-1.41v-.16c-.29-.12-.59-.18-.89-.18-1.32,0-1.97,.68-1.97,2.05,0,.91,.17,1.71,.51,2.4h1.67c.55,0,.83,.16,.83,.48,0,.26-.08,.49-.25,.68-.17,.19-.35,.29-.55,.29h-1.71v7.44c0,.45,.25,.68,.74,.71,.5,.03,.74,.22,.74,.59,0,.42-.28,.69-.85,.79-.42,.08-.83,.12-1.23,.12h-.87c-.18,0-.33,0-.46,0-.13,0-.3-.01-.52-.03-.22-.01-.39-.04-.5-.08-.12-.04-.24-.09-.37-.16h0Zm15.48-14.2c0-.34,.16-.66,.49-.95,.33-.3,.69-.44,1.07-.44s.77,.12,1.13,.36c.37,.24,.55,.55,.55,.95s-.15,.72-.46,.99c-.31,.27-.69,.4-1.13,.4s-.83-.12-1.16-.37c-.33-.25-.49-.56-.49-.92h0Zm2.41,14.48h-.99c-1.01,.01-1.63-.14-1.87-.45-.11-.14-.16-.31-.16-.5s.08-.33,.23-.41c.15-.08,.32-.12,.51-.13,.19,0,.36-.07,.51-.18,.15-.11,.23-.29,.23-.54v-6.21c0-.7-.27-1.08-.82-1.13-.05,0-.12-.02-.21-.02l-.18-.02s-.09-.01-.14-.02c-.06-.01-.1-.02-.13-.04-.03-.02-.05-.04-.09-.06-.05-.04-.08-.15-.08-.33s.12-.37,.35-.56c.44-.35,1.02-.53,1.75-.53,.68,0,1.08,.03,1.2,.08,.12,.05,.22,.11,.3,.17,.16,.11,.24,.31,.24,.61v8.05c0,.45,.25,.68,.74,.71,.5,.03,.74,.22,.74,.59,0,.42-.23,.69-.69,.79-.35,.08-.84,.12-1.46,.12h0Zm13.13,0h-.99c-1.01,.01-1.63-.14-1.87-.45-.11-.14-.16-.31-.16-.5s.08-.33,.23-.41c.15-.08,.32-.12,.51-.13,.19,0,.36-.07,.51-.18,.15-.11,.23-.29,.23-.54v-12.18c0-.7-.27-1.08-.82-1.13-.05,0-.12-.02-.21-.02-.08,0-.14-.01-.18-.02-.04,0-.09-.01-.14-.02-.06-.01-.1-.03-.12-.04-.03-.02-.06-.04-.09-.06-.05-.04-.08-.15-.08-.33,0-.18,.12-.37,.35-.56,.44-.35,1.02-.53,1.75-.53,.78,0,1.23,.05,1.36,.14,.26,.18,.39,.43,.39,.73v10.1c.28-.21,.94-.7,1.99-1.45,2.04-1.48,3.07-2.28,3.07-2.42,0-.18-.29-.36-.88-.54,.02-.7,.67-1.05,1.94-1.05h1.57c1.94,0,2.91,.11,2.91,.32,0,.1-.11,.26-.33,.48-.22,.22-.44,.39-.68,.52-.51,0-1.09,.17-1.75,.52-.66,.35-1.47,.88-2.43,1.59l-2,1.48,3.62,3.83c.44,.45,.84,.8,1.2,1.04,.36,.24,.69,.4,.99,.47,.3,.07,.52,.13,.68,.16l.33,.07c.07,.02,.16,.04,.26,.09,.11,.04,.19,.09,.24,.13,.13,.12,.2,.27,.2,.45,0,.37-.6,.55-1.79,.55h-.56c-.73,0-1.23-.03-1.51-.1-.27-.06-.56-.24-.87-.54-1.15-1.08-2.57-2.84-4.26-5.26l-1.96,1.33v2.25c0,.45,.25,.68,.74,.71,.5,.03,.74,.22,.74,.59,0,.42-.23,.69-.69,.79-.35,.08-.84,.12-1.46,.12h0Zm19.95-14.48c0-.34,.16-.66,.49-.95,.33-.3,.69-.44,1.07-.44s.77,.12,1.13,.36c.37,.24,.55,.55,.55,.95s-.15,.72-.46,.99c-.31,.27-.69,.4-1.13,.4s-.83-.12-1.16-.37c-.33-.25-.49-.56-.49-.92h0Zm2.41,14.48h-.99c-1.01,.01-1.63-.14-1.87-.45-.11-.14-.16-.31-.16-.5s.08-.33,.23-.41c.15-.08,.32-.12,.51-.13,.19,0,.36-.07,.51-.18,.15-.11,.23-.29,.23-.54v-6.21c0-.7-.27-1.08-.82-1.13-.05,0-.12-.02-.21-.02l-.18-.02s-.09-.01-.14-.02c-.06-.01-.1-.02-.13-.04-.03-.02-.05-.04-.09-.06-.05-.04-.08-.15-.08-.33s.11-.37,.35-.56c.44-.35,1.02-.53,1.75-.53,.68,0,1.08,.03,1.2,.08,.12,.05,.22,.11,.3,.17,.16,.11,.24,.31,.24,.61v8.05c0,.45,.25,.68,.74,.71,.5,.03,.74,.22,.74,.59,0,.42-.23,.69-.69,.79-.35,.08-.84,.12-1.46,.12h0Z"/></svg>