<?xml version="1.0" encoding="utf-8"?>
<!-- Generator: Adobe Illustrator 26.1.0, SVG Export Plug-In . SVG Version: 6.00 Build 0)  -->
<svg version="1.1"
	 id="svg56" xmlns:inkscape="http://www.inkscape.org/namespaces/inkscape" xmlns:sodipodi="http://sodipodi.sourceforge.net/DTD/sodipodi-0.dtd" xmlns:svg="http://www.w3.org/2000/svg"
	 xmlns="http://www.w3.org/2000/svg" xmlns:xlink="http://www.w3.org/1999/xlink" x="0px" y="0px" viewBox="0 0 256 93.1"
	 style="enable-background:new 0 0 256 93.1;" xml:space="preserve">
<style type="text/css">
	.st0{fill:#FFFFFF;}
</style>
<sodipodi:namedview  bordercolor="#111111" borderopacity="1" id="namedview58" inkscape:current-layer="svg56" inkscape:cx="128" inkscape:cy="128" inkscape:deskcolor="#d1d1d1" inkscape:pagecheckerboard="1" inkscape:pageopacity="0" inkscape:showpageshadow="0" inkscape:window-height="1377" inkscape:window-maximized="1" inkscape:window-width="2560" inkscape:window-x="1912" inkscape:window-y="-8" inkscape:zoom="3.9140625" pagecolor="#ffffff" showgrid="false">
	</sodipodi:namedview>
<g id="g50" transform="translate(-152.78244,54.674649)">
	<path id="path32" class="st0" d="M219.8-5.7c0.2,0,0.4,0,0.6,0l0,0c0.5,0,0.9-0.3,1.1-0.7l4.6-10.3c0.2-0.4,0.1-0.9-0.2-1.3
		l-0.1-0.1l1.3-2.6c4.1-1.5,3.8-6.9,3.8-7.1c0-0.3-0.1-0.5-0.3-0.7c-0.3-0.3-7.1-8.2-25-8.2c-0.9,0-2,0-2.9,0.1
		c-20.9,1-24,6.9-24.5,9.4c-0.4,2.9,2,4.8,2.1,4.8c0.1,0.1,0.2,0.1,0.2,0.1c0.5,0.2,0.9,0.4,1.4,0.5l2.2,5.3
		c-0.3,1.8-0.1,3.6,0.6,5.1c0.6,1.3,1.5,2.2,2.6,2.7l14.8,34.8c0.2,0.4,0.6,0.7,1.1,0.8l0,0c0.5,0,0.9-0.3,1.1-0.7l5.8-11.9
		c0.3-0.2,0.6-0.4,0.9-0.7c1.4-1.2,2.2-2.6,2.3-4.2c0-0.5,0-1-0.1-1.5L219.8-5.7z M205.1,1.2c0.1-0.1,0.3-0.1,0.3-0.2
		c0.3-0.3,0.4-0.7,0.4-1c-0.1-0.7-0.1-1.5,0-2c0.7,0.1,2.1,0.5,2.5,1.3c0.3,0.6,0,1.4-0.4,2.1c0,0.1-0.1,0.2-0.2,0.3
		c-0.2,0.4-0.4,0.7-0.7,1c-0.3,0.4-0.5,0.7-0.8,1c-1.6,1.9-3.2,2.9-4.3,2.9c-0.4,0-0.5-0.2-0.6-0.2s-0.1-0.1-0.1-0.1
		c-0.5-0.5-0.7-1.1-0.6-1.4c0.2-0.5,0.9-0.6,1.2-0.6c0.5-0.1,0.9-0.4,1-0.9c0.1-0.3,0.1-0.5,0-0.8c-0.1-0.2-0.2-0.4-0.4-0.5
		s-0.3-0.3-0.5-0.3c-1.4-1.1-2.7-2.2-3.2-2.9c0.7-0.6,1.4-1.2,1.9-1.5c0.9,1.2,2.7,3.3,2.9,3.7c0.1,0.1,0.1,0.1,0.2,0.2
		C204.2,1.3,204.7,1.4,205.1,1.2L205.1,1.2z M200.7,8.7C200.7,8.6,200.7,8.6,200.7,8.7c0.4,0.2,0.9,0.3,1.4,0.3
		c2.1,0,4.6-1.7,6.6-4.4c0.4,0.4,1.4,1.6,1.9,3.1c0.2,0.5,0.3,1.1,0.3,1.7c-0.1,0.9-0.5,1.7-1.4,2.5c-0.4,0.3-0.8,0.6-1.3,0.9
		c-0.9,0.5-1.8,0.8-2.5,0.8c-1.6,0-3-1.2-4.2-2.5C200.9,10.4,200.6,9.6,200.7,8.7L200.7,8.7z M210.3,2.7c-0.1-0.1-0.2-0.1-0.2-0.2
		c0,0,0-0.1,0.1-0.1c0.9-1.7,1.1-3.1,0.4-4.4c-1.1-2.1-4-2.5-4.6-2.5c-0.7-0.1-1.4,0.1-1.8,0.6c-0.2,0.2-0.3,0.5-0.5,0.8
		c-0.6-0.8-1.1-1.4-1.3-1.7c-0.3-0.4-0.8-0.7-1.3-0.7c-1.3,0-3.3,1.9-4.4,3c-0.3,0.3-0.4,0.7-0.4,1.1c0,0.3,0.1,1.3,3.3,3.9
		c-0.5,0.4-0.8,0.9-1,1.4c-0.3,0.8-0.2,1.6,0.2,2.4c-0.2,0.7-0.4,1.4-0.4,2.1c-0.1,1.6,0.4,3.1,1.5,4.1c1.5,1.5,3.4,3.2,5.9,3.2
		c0.3,0,0.7,0,1-0.1l-3.4,7L190.5-7.9c0.4,0.1,0.9,0.1,1.3,0.1c2.5,0,4.4-1.3,5.9-4c0.7,0,1.7-0.3,2.5-5c0.4,0.1,0.8,0.2,1.1,0.2
		c1.7,0,3.1-1.3,3.5-3.3c0.2-1-0.1-2-0.8-2.9c-0.8-0.9-2-1.7-3.5-2.3l0,0c3.5,0,5.9-0.5,7.8-1c1.8-0.4,3.1-0.7,4.4-0.4
		c1.6,0.3,3.6,1.6,5.4,2.8c2,1.3,4.2,2.7,6.2,3.1l-0.4,0.9c-1-0.5-2.6-1-4.2-1c-1.3,0-2.4,0.4-3.2,1.1c-0.2,0.2-0.4,0.3-0.6,0.5
		c-0.8-0.3-1.7-0.5-2.7-0.5c-2.1,0-4.6,0.7-6.9,2c-1.7,0.9-2.6,2.1-2.7,3.5c-0.2,2.4,2,4.2,2.5,4.6c0.4,0.3,0.8,0.5,1.3,0.5
		s0.9-0.2,1.4-0.5c0.1,1,0.2,1.8,0.2,2.1c0,0.5,0.3,1.2,1.2,1.5c0.3,0.1,0.7,0.2,1.2,0.2c1.5,0,3.6-0.4,3.6-0.5
		c0.4-0.1,0.8-0.4,1-0.7c0.1-0.1,0.2-0.3,0.2-0.6c0.4,0.4,0.9,0.7,1.4,1l-5.5,11.3C211.2,3.6,210.4,2.8,210.3,2.7L210.3,2.7z
		 M180.6-26.8c1-6.2,20-7.3,22.2-7.4c0.9,0,1.9-0.1,2.8-0.1c14.7,0,21.4,5.7,22.8,7.1c0,0.5-0.1,1.3-0.3,2c-0.2,0.6-0.5,1.3-1.1,1.7
		c-0.3,0.3-0.7,0.5-1.1,0.6c-0.2,0-0.4,0.1-0.5,0.1l0,0c-1.6,0-3.8-1.4-5.9-2.8c-0.7-0.5-1.5-1-2.2-1.4c-1.3-0.8-2.7-1.4-4-1.7
		c-0.6-0.1-1.1-0.2-1.7-0.2c-0.7,0-1.3,0.1-2,0.2c-0.6,0.1-1.1,0.2-1.8,0.4c-1.9,0.4-4,0.9-7.2,0.9c-1.9,0-4-0.2-6.2-0.5
		c-0.3,0-0.5-0.1-0.8-0.1c-1.9,0-3.4,1.1-4.9,2.1s-3,2-4.7,2h-0.2c-0.5,0-0.9-0.1-1.4-0.3c-0.2-0.1-0.3-0.1-0.5-0.2
		c-0.2-0.2-0.6-0.6-0.8-1.1C180.6-25.9,180.6-26.4,180.6-26.8L180.6-26.8z M215.5-16.1c0.2,0.7,0.1,1.3-0.1,1.5
		c-0.2,0.3-0.5,0.3-0.9,0.2c-0.2,0-0.4-0.1-0.6-0.2c-0.2-0.1-0.4-0.1-0.6-0.1c-0.3,0-0.5,0.1-0.8,0.3c-0.4,0.3-0.5,0.9-0.3,1.3
		c0.7,1.8,1.2,3.8,1.4,4.8c-0.8,0.1-1.8,0.3-2.4,0.3c-0.1-1.5-0.4-4.3-0.5-4.6c-0.1-0.5-0.5-1-1-1c-0.5-0.1-1.1,0.2-1.3,0.7
		c-0.3,0.6-0.8,1.3-1.1,1.6c-0.5-0.5-1.5-1.5-1.4-2.4c0.1-0.7,0.8-1.2,1.4-1.5c2-1.1,4.1-1.7,5.8-1.7c0.4,0,0.9,0,1.2,0.1
		c0.5,0.1,0.9,0.3,1.1,0.6C215.5-16.3,215.5-16.2,215.5-16.1L215.5-16.1z M217.3-13.1c0.7-0.9,0.9-2.3,0.5-3.7
		c-0.1-0.2-0.1-0.3-0.2-0.5c0.1-0.1,0.2-0.2,0.3-0.3c0.4-0.3,0.9-0.5,1.6-0.5c1.1,0,2.3,0.4,3.1,0.8c0.3,0.2,0.6,0.3,0.8,0.4
		l-3.9,8.8c-0.4-0.1-0.7-0.3-1.1-0.5c-0.7-0.4-1.4-1.1-2.3-1.9c-0.4-0.4-0.6-0.9-0.7-1.4C216.3-12.2,216.9-12.6,217.3-13.1z
		 M198-19.2l-0.2,1.1c-0.4-0.6-0.8-1.1-1.4-1.6c0.2-0.5,0-1-0.4-1.3s-1-0.3-1.4,0l0,0c-1.1-0.6-2-0.9-2-0.9l0,0c0-0.4,0.1-0.7,0.2-1
		c0.3-0.6,1.3-0.7,2-0.7c3.7,0,6.3,1.2,7.2,2.3c0.3,0.3,0.4,0.6,0.3,0.9c-0.2,0.9-0.7,1.4-1.1,1.4c-0.3,0-0.7-0.3-1-0.7
		s-0.8-0.6-1.3-0.5C198.5-20.1,198.1-19.7,198-19.2z M189.9-23.9c0.5-0.3,0.9-0.6,1.3-0.9c-0.2,0.2-0.4,0.4-0.5,0.6
		c-0.5,0.7-0.6,1.5-0.6,2.3c-1.5,0.2-3.5,0.7-4.7,2.1l-0.8-1.9C186.8-21.8,188.4-22.9,189.9-23.9L189.9-23.9z M186.7-16.7
		c0.1-0.3,0.2-0.6,0.3-0.9c0.5-1.3,2.3-1.7,3.6-1.8c0.6-0.1,1-0.1,1.2-0.1h0.2c0.2,0.1,0.8,0.3,1.4,0.6c0.4,0.2,0.8,0.5,1.3,0.8
		c0.3,0.3,0.7,0.6,0.9,0.9c0.2,0.2,0.3,0.5,0.4,0.7c0.3,0.6,0.3,1.2,0.2,1.8c-0.1,0.3-0.2,0.6-0.3,0.9c0,0.1-0.1,0.2-0.1,0.3
		c-0.2,0.4-0.4,0.8-0.6,1.1c-1.2,1.9-2.4,2.2-3.4,2.2c-0.8,0-1.6-0.2-2.5-0.4l-0.6-0.2c-0.4-0.1-0.8-0.4-1.1-0.7
		c-0.2-0.3-0.4-0.6-0.6-0.9c-0.2-0.4-0.3-0.9-0.4-1.5C186.4-14.8,186.5-15.8,186.7-16.7z"/>
	<path id="path34" class="st0" d="M238.6-6.1c-0.1-0.7-0.7-1.1-1.4-1.1L227.5-6c-0.7,0.1-1.1,0.7-1.1,1.4c0.1,0.6,0.6,1.1,1.2,1.1
		h0.2l9.7-1.2C238.2-4.8,238.7-5.3,238.6-6.1C238.6-6,238.6-6,238.6-6.1z"/>
	<path id="path36" class="st0" d="M222.1,10.4c-0.5-0.5-1.2-0.5-1.7,0s-0.5,1.2,0,1.7l5.1,5.3c0.3,0.3,0.6,0.4,0.9,0.4
		s0.6-0.1,0.9-0.3c0.5-0.5,0.5-1.2,0-1.7L222.1,10.4L222.1,10.4z"/>
	<path id="path38" class="st0" d="M216.9,17.8c-0.3-0.6-1.1-0.8-1.7-0.4c-0.6,0.3-0.8,1.1-0.4,1.7l4.4,7c0.2,0.4,0.6,0.6,1,0.6
		c0.2,0,0.4-0.1,0.6-0.2c0.6-0.3,0.8-1.1,0.4-1.7L216.9,17.8z"/>
	<path id="path40" class="st0" d="M230.9,5.7l-5.2-2.2c-0.6-0.3-1.3,0-1.6,0.6s0,1.3,0.6,1.6l5.2,2.2c0.2,0.1,0.3,0.1,0.5,0.1
		c0.5,0,0.9-0.3,1.1-0.8C231.8,6.7,231.5,5.9,230.9,5.7z"/>
	<path id="path42" class="st0" d="M185.7,13.2l-6.5,7.2c-0.4,0.5-0.4,1.3,0.1,1.7c0.2,0.2,0.5,0.3,0.8,0.3s0.7-0.1,0.9-0.4l6.5-7.2
		c0.4-0.5,0.4-1.3-0.1-1.7C186.9,12.7,186.2,12.7,185.7,13.2L185.7,13.2z"/>
	<path id="path44" class="st0" d="M178.7-0.2c0.7,0,1.2-0.5,1.2-1.2l0,0c0-0.7-0.5-1.2-1.2-1.2l-7.3-0.1c-0.7,0-1.2,0.5-1.2,1.2l0,0
		c0,0.7,0.5,1.2,1.2,1.2L178.7-0.2L178.7-0.2z"/>
	<path id="path46" class="st0" d="M172-11.4l6,1.8c0.1,0,0.2,0.1,0.3,0.1c0.5,0,1-0.3,1.2-0.8c0.2-0.6-0.2-1.3-0.8-1.5l-6-1.9
		c-0.6-0.2-1.3,0.2-1.5,0.8C171-12.2,171.4-11.6,172-11.4L172-11.4z"/>
	<path id="path48" class="st0" d="M183,5.1c-0.2-0.6-1-0.9-1.6-0.7l0,0l-6.7,2.8c-0.6,0.2-0.9,1-0.7,1.6l0,0
		c0.2,0.5,0.6,0.8,1.1,0.8c0.2,0,0.3,0,0.5-0.1l6.7-2.8C182.9,6.5,183.2,5.7,183,5.1z"/>
</g>
<path id="path52" class="st0" d="M121.8,22.1c0,1.8-0.3,3.4-1,4.9c-0.7,1.4-1.7,2.7-2.9,3.7c-1.3,1-2.8,1.8-4.5,2.3
	c-1.8,0.5-3.7,0.8-5.8,0.8c-0.3,0-0.5-0.1-0.7-0.2s-0.3-0.4-0.3-0.6s0.1-0.4,0.2-0.6c0.2-0.2,0.4-0.2,0.6-0.2c1.9,0,3.6-0.2,5.2-0.7
	c1.6-0.4,2.9-1.1,4-1.9s2-1.9,2.6-3.1s0.9-2.6,0.9-4.2s-0.4-3.1-1.1-4.3c-0.7-1.3-1.7-2.3-3-3.2c-1.3-0.9-2.8-1.5-4.6-2
	c-1.8-0.4-3.7-0.7-5.9-0.7c-2,0-4,0.2-5.8,0.5c-1.9,0.3-3.7,0.8-5.3,1.4c-1.7,0.6-3.2,1.3-4.5,2.2C88.5,17,87.4,18,86.4,19
	s-1.7,2.1-2.3,3.2c-0.5,1.1-0.8,2.3-0.8,3.6c0,1.1,0.2,2,0.6,2.8s0.9,1.5,1.5,2s1.3,1,2.2,1.2c0.8,0.3,1.7,0.4,2.5,0.4
	c1.1,0,2-0.1,2.8-0.3c0.8-0.2,1.5-0.5,2.1-0.7c0.6-0.3,1-0.5,1.3-0.8c0.3-0.2,0.5-0.4,0.5-0.4c0.2-0.2,0.4-0.2,0.6-0.2
	s0.4,0.1,0.6,0.3c0.2,0.2,0.3,0.4,0.3,0.6c0,0.3-0.1,0.5-0.3,0.6c0,0-0.2,0.2-0.6,0.5s-0.9,0.6-1.5,0.9c-0.7,0.3-1.5,0.6-2.4,0.9
	c-1,0.3-2.1,0.4-3.3,0.4c-1.1,0-2.2-0.2-3.2-0.6s-1.9-0.9-2.7-1.6c-0.8-0.7-1.4-1.6-1.9-2.6s-0.7-2.2-0.7-3.4c0-1.4,0.3-2.7,0.9-4
	s1.4-2.5,2.4-3.7c1-1.1,2.3-2.2,3.8-3.1s3.1-1.7,4.8-2.4c1.8-0.7,3.7-1.2,5.7-1.6s4.1-0.6,6.3-0.6c2.4,0,4.6,0.3,6.6,0.8
	s3.7,1.3,5.1,2.3s2.6,2.3,3.4,3.7C121.4,18.5,121.8,20.2,121.8,22.1L121.8,22.1z M108.4,16.7c0.2,0,0.4,0.1,0.6,0.2
	c0.2,0.2,0.3,0.4,0.3,0.6s0,0.3-0.1,0.4s-0.2,0.2-0.3,0.3c-0.8,0.7-1.5,1.4-2,2.1c-0.5,0.8-0.9,1.6-1.1,2.5
	c-0.3,0.9-0.4,1.8-0.5,2.8s-0.1,2-0.1,3.1v2.8c0,1.9-0.2,3.6-0.5,5.3c-0.3,1.7-0.9,3.1-1.7,4.4c-0.8,1.3-1.8,2.3-3.2,3
	c-1.3,0.7-3,1.1-5,1.1c-0.9,0-1.8-0.1-2.6-0.3c-0.9-0.2-1.7-0.5-2.4-0.9c-0.8-0.4-1.5-0.9-2.1-1.5s-1.2-1.3-1.7-2
	c0-0.1-0.1-0.1-0.1-0.2s0-0.2,0-0.2c0-0.2,0.1-0.4,0.2-0.6c0.2-0.2,0.4-0.3,0.6-0.3c0.1,0,0.3,0,0.4,0.1s0.2,0.2,0.3,0.3
	c1,1.3,2,2.3,3.3,3c1.2,0.7,2.6,1,4.1,1c1.8,0,3.2-0.3,4.3-1c1.1-0.7,2-1.5,2.6-2.7c0.6-1.1,1.1-2.5,1.3-4c0.2-1.5,0.3-3.1,0.3-4.8
	v-2.9c0-1,0-2,0.1-3.1s0.3-2.1,0.6-3.2c0.3-1,0.8-2,1.4-2.9s1.4-1.7,2.5-2.4c0.1,0,0.1-0.1,0.2-0.1
	C108.3,16.7,108.4,16.7,108.4,16.7L108.4,16.7z M127,26.6c0,0.6-0.2,1.1-0.6,1.5s-0.9,0.6-1.5,0.6s-1.1-0.2-1.5-0.6
	s-0.6-0.9-0.6-1.5c0-0.3,0.1-0.6,0.2-0.8c0.1-0.2,0.3-0.5,0.4-0.7c0.2-0.2,0.4-0.3,0.7-0.4c0.2-0.1,0.5-0.2,0.8-0.2s0.6,0.1,0.8,0.2
	c0.2,0.1,0.5,0.3,0.7,0.4c0.2,0.2,0.3,0.4,0.4,0.7C127,26.1,127,26.3,127,26.6L127,26.6z M123.4,39.8c0-2.2,0.1-4.3,0.4-6.5
	c0-0.2,0.1-0.4,0.3-0.6c0.2-0.2,0.4-0.2,0.6-0.2s0.4,0.1,0.6,0.3c0.2,0.2,0.2,0.4,0.2,0.6c0,0.1,0,0.4-0.1,0.8c0,0.5-0.1,1-0.1,1.6
	c-0.1,0.6-0.1,1.3-0.1,2s-0.1,1.3-0.1,1.9c0,0.8,0.1,1.4,0.2,1.9c0.2,0.5,0.4,0.9,0.6,1.1c0.2,0.3,0.5,0.5,0.8,0.5
	c0.3,0.1,0.5,0.1,0.8,0.1c0.4,0,0.9-0.1,1.3-0.4c0.5-0.3,0.9-0.7,1.4-1.3c0.5-0.5,1-1.2,1.4-1.9c0.5-0.8,1-1.6,1.4-2.5
	c0.1-0.1,0.2-0.3,0.3-0.3c0.1-0.1,0.3-0.1,0.5-0.1s0.4,0.1,0.6,0.3c0.2,0.2,0.2,0.4,0.2,0.6s0,0.3-0.1,0.4c-0.2,0.3-0.4,0.8-0.7,1.3
	s-0.6,1-0.9,1.5c-0.3,0.5-0.7,1-1.1,1.6c-0.4,0.5-0.9,1-1.3,1.4c-0.5,0.4-1,0.7-1.5,1s-1,0.4-1.6,0.4c-0.7,0-1.3-0.1-1.8-0.4
	s-0.9-0.7-1.3-1.1c-0.4-0.5-0.6-1.1-0.8-1.7C123.5,41.3,123.4,40.6,123.4,39.8L123.4,39.8z M125.8,26.6c0-0.2-0.1-0.4-0.2-0.6
	c-0.2-0.2-0.3-0.2-0.6-0.2c-0.2,0-0.4,0.1-0.5,0.2c-0.2,0.2-0.2,0.3-0.2,0.6c0,0.2,0.1,0.4,0.2,0.5c0.2,0.2,0.3,0.2,0.5,0.2
	s0.4-0.1,0.6-0.2C125.7,27,125.8,26.8,125.8,26.6z M143.6,47.7c0.1,1.2,0.1,2.7,0.1,4.4c0,1.8-0.1,3.5-0.3,5s-0.6,2.8-1,3.9
	c-0.4,1.1-1,2-1.6,2.6s-1.4,0.9-2.2,0.9c-0.4,0-0.8-0.1-1.2-0.3s-0.7-0.5-1-0.8c-0.3-0.4-0.5-0.8-0.7-1.3s-0.2-1.1-0.2-1.7
	c0-0.9,0.1-1.9,0.3-2.9c0.2-1,0.6-2.1,1.1-3.2s1.1-2.3,2-3.5c0.8-1.2,1.8-2.5,3-3.8c-0.1-0.6-0.1-1.2-0.2-1.8
	c-0.1-0.6-0.2-1-0.4-1.4s-0.3-0.7-0.5-0.9c-0.2-0.2-0.4-0.3-0.7-0.3c-0.1,0-0.2,0-0.3,0c-0.3,0.4-0.7,0.7-0.9,0.9
	c-0.3,0.2-0.5,0.4-0.8,0.5c-0.2,0.1-0.4,0.2-0.6,0.2c-0.2,0-0.3,0-0.3,0c-0.3,0-0.5-0.1-0.7-0.2s-0.4-0.4-0.4-0.8
	c0-0.1,0-0.3,0.1-0.5s0.3-0.4,0.5-0.7c0.2-0.2,0.5-0.5,0.9-0.7s0.8-0.4,1.3-0.5c1-1.1,1.8-2,2.3-2.9c0.6-0.9,0.8-1.7,0.8-2.5
	c0-0.7-0.2-1.2-0.6-1.6c-0.4-0.4-1-0.6-1.6-0.6c-0.9,0-1.8,0.4-2.7,1.3c-0.9,0.8-1.7,2-2.4,3.5c-0.2,0.3-0.4,0.5-0.8,0.5
	c-0.3,0-0.5-0.1-0.6-0.3c-0.2-0.2-0.2-0.4-0.2-0.6c0-0.1,0-0.3,0.1-0.4c0.9-1.8,1.9-3.2,3.1-4.2c1.2-1,2.4-1.5,3.6-1.5
	c0.5,0,1,0.1,1.5,0.3c0.5,0.2,0.9,0.4,1.3,0.8c0.4,0.3,0.6,0.8,0.9,1.2c0.2,0.5,0.3,1,0.3,1.7c0,0.5-0.1,1-0.2,1.5
	c-0.1,0.5-0.3,1-0.6,1.4c-0.2,0.5-0.5,0.9-0.8,1.3s-0.6,0.8-1,1.2c0.4,0.2,0.7,0.4,1,0.8c0.3,0.3,0.5,0.7,0.7,1.1s0.3,0.8,0.4,1.3
	c0.1,0.4,0.2,0.9,0.2,1.3c0.6-0.6,1.2-1.3,1.8-2s1.2-1.4,1.8-2.1s1.1-1.4,1.6-2.1s0.8-1.3,1.1-1.9c0.1-0.2,0.2-0.3,0.3-0.4
	s0.3-0.1,0.4-0.1c0.3,0,0.5,0.1,0.6,0.3c0.2,0.2,0.2,0.4,0.2,0.6c0,0.1,0,0.2-0.1,0.3c-0.3,0.8-0.8,1.6-1.4,2.4
	c-0.6,0.9-1.3,1.7-2,2.6s-1.4,1.7-2.2,2.5C144.9,46.3,144.2,47,143.6,47.7L143.6,47.7z M142,49.5c-0.9,1.2-1.7,2.2-2.3,3.3
	c-0.6,1-1.1,2-1.5,2.9s-0.6,1.7-0.8,2.5s-0.2,1.5-0.2,2.1c0,0.8,0.1,1.4,0.4,1.9c0.3,0.5,0.6,0.7,1,0.7c0.5,0,1-0.3,1.4-0.8
	s0.8-1.3,1.1-2.2s0.5-2,0.7-3.3s0.2-2.7,0.2-4.1c0-0.4,0-0.8,0-1.3C142.1,50.5,142,50,142,49.5L142,49.5z M160.2,47.7
	c0.1,1.2,0.1,2.7,0.1,4.4c0,1.8-0.1,3.5-0.3,5s-0.6,2.8-1,3.9c-0.4,1.1-1,2-1.6,2.6s-1.4,0.9-2.2,0.9c-0.4,0-0.8-0.1-1.2-0.3
	s-0.7-0.5-1-0.8c-0.3-0.4-0.5-0.8-0.7-1.3s-0.2-1.1-0.2-1.7c0-0.9,0.1-1.9,0.3-2.9c0.2-1,0.6-2.1,1.1-3.2s1.1-2.3,2-3.5
	c0.8-1.2,1.8-2.5,3-3.8c-0.1-0.6-0.1-1.2-0.2-1.8c-0.1-0.6-0.2-1-0.4-1.4s-0.3-0.7-0.5-0.9c-0.2-0.2-0.4-0.3-0.7-0.3
	c-0.1,0-0.2,0-0.3,0c-0.3,0.4-0.7,0.7-0.9,0.9c-0.3,0.2-0.5,0.4-0.8,0.5c-0.2,0.1-0.4,0.2-0.6,0.2c-0.2,0-0.3,0-0.3,0
	c-0.3,0-0.5-0.1-0.7-0.2s-0.4-0.4-0.4-0.8c0-0.1,0-0.3,0.1-0.5s0.3-0.4,0.5-0.7c0.2-0.2,0.5-0.5,0.9-0.7s0.8-0.4,1.3-0.5
	c1-1.1,1.8-2,2.3-2.9c0.6-0.9,0.8-1.7,0.8-2.5c0-0.7-0.2-1.2-0.6-1.6c-0.4-0.4-1-0.6-1.6-0.6c-0.9,0-1.8,0.4-2.7,1.3
	c-0.9,0.8-1.7,2-2.4,3.5c-0.2,0.3-0.4,0.5-0.8,0.5c-0.3,0-0.5-0.1-0.6-0.3c-0.2-0.2-0.2-0.4-0.2-0.6c0-0.1,0-0.3,0.1-0.4
	c0.9-1.8,1.9-3.2,3.1-4.2c1.2-1,2.4-1.5,3.6-1.5c0.5,0,1,0.1,1.5,0.3c0.5,0.2,0.9,0.4,1.3,0.8c0.4,0.3,0.6,0.8,0.9,1.2
	c0.2,0.5,0.3,1,0.3,1.7c0,0.5-0.1,1-0.2,1.5c-0.1,0.5-0.3,1-0.6,1.4c-0.2,0.5-0.5,0.9-0.8,1.3s-0.6,0.8-1,1.2c0.4,0.2,0.7,0.4,1,0.8
	c0.3,0.3,0.5,0.7,0.7,1.1s0.3,0.8,0.4,1.3c0.1,0.4,0.2,0.9,0.2,1.3c0.6-0.6,1.2-1.3,1.8-2s1.2-1.4,1.8-2.1s1.1-1.4,1.6-2.1
	s0.8-1.3,1.1-1.9c0.1-0.2,0.2-0.3,0.3-0.4s0.3-0.1,0.4-0.1c0.3,0,0.5,0.1,0.6,0.3c0.2,0.2,0.2,0.4,0.2,0.6c0,0.1,0,0.2-0.1,0.3
	c-0.3,0.8-0.8,1.6-1.4,2.4c-0.6,0.9-1.3,1.7-2,2.6s-1.4,1.7-2.2,2.5C161.5,46.3,160.8,47,160.2,47.7L160.2,47.7z M158.6,49.5
	c-0.9,1.2-1.7,2.2-2.3,3.3c-0.6,1-1.1,2-1.5,2.9s-0.6,1.7-0.8,2.5s-0.2,1.5-0.2,2.1c0,0.8,0.1,1.4,0.4,1.9c0.3,0.5,0.6,0.7,1,0.7
	c0.5,0,1-0.3,1.4-0.8s0.8-1.3,1.1-2.2s0.5-2,0.7-3.3s0.2-2.7,0.2-4.1c0-0.4,0-0.8,0-1.3C158.6,50.5,158.6,50,158.6,49.5L158.6,49.5z
	 M168.9,41.8c0.3,0.4,0.7,0.8,1.2,1c0.5,0.3,1.1,0.4,1.8,0.4s1.4-0.2,2-0.5c0.6-0.4,1.2-0.8,1.6-1.4c0.5-0.6,0.9-1.2,1.3-1.9
	c0.4-0.7,0.7-1.4,1.1-2.1c0.1-0.2,0.2-0.3,0.3-0.4s0.3-0.1,0.4-0.1c0.3,0,0.5,0.1,0.6,0.3c0.2,0.2,0.2,0.4,0.2,0.6
	c0,0.1,0,0.1,0,0.2s0,0.1-0.1,0.2c-1,2.3-2.2,4-3.4,5.2s-2.6,1.7-4.2,1.8c-1,0-1.9-0.2-2.6-0.6c-0.7-0.4-1.3-0.9-1.8-1.5
	s-0.8-1.3-1-2.1c-0.2-0.8-0.3-1.5-0.3-2.3s0.1-1.5,0.3-2.1s0.5-1.2,0.8-1.7c0.4-0.5,0.8-0.9,1.3-1.1c0.5-0.3,1-0.4,1.6-0.4
	c0.3,0,0.7,0.1,1,0.2s0.6,0.3,0.9,0.6c0.3,0.3,0.5,0.6,0.7,1s0.2,0.8,0.2,1.3c0,0.6-0.1,1.2-0.3,1.7s-0.5,1-0.9,1.5
	s-0.8,0.9-1.3,1.3C170,41.2,169.5,41.5,168.9,41.8L168.9,41.8z M168.2,40.4c0.5-0.2,0.9-0.4,1.3-0.7c0.4-0.3,0.7-0.6,1-1
	s0.5-0.7,0.6-1.1c0.2-0.4,0.2-0.8,0.2-1.2c0-0.5-0.1-0.8-0.3-1s-0.5-0.4-0.8-0.4c-0.4,0-0.8,0.1-1,0.3c-0.3,0.2-0.5,0.5-0.7,0.9
	s-0.3,0.8-0.4,1.2c-0.1,0.4-0.1,0.9-0.1,1.3c0,0.3,0,0.6,0.1,0.9C168.1,39.8,168.1,40.1,168.2,40.4L168.2,40.4z M180.3,35
	c-0.1,0.4-0.1,0.8-0.2,1.1c-0.1,0.4-0.2,0.7-0.3,0.9c-0.1,0.3-0.2,0.5-0.2,0.6c-0.1,0.2-0.1,0.3-0.1,0.3c-0.1,0.3-0.4,0.5-0.8,0.5
	c-0.2,0-0.4-0.1-0.6-0.2c-0.2-0.2-0.3-0.4-0.3-0.6c0-0.1,0-0.2,0-0.2s0.1-0.1,0.1-0.3c0.1-0.1,0.1-0.4,0.2-0.7
	c0.1-0.3,0.2-0.8,0.3-1.5c-0.3,0-0.5,0-0.8,0s-0.5-0.1-0.8-0.2c-0.2-0.1-0.4-0.2-0.6-0.4c-0.2-0.2-0.2-0.5-0.2-0.8s0.1-0.6,0.2-1
	c0.1-0.4,0.3-0.9,0.6-1.3c0.2-0.4,0.5-0.8,0.8-1.1c0.3-0.3,0.6-0.5,0.9-0.5c0.3,0,0.6,0.1,0.8,0.4s0.4,0.6,0.5,0.9
	c0.1,0.4,0.2,0.8,0.3,1.2c0.1,0.4,0.1,0.8,0.1,1.1c0.3,0,0.5,0,0.8,0c0.2,0,0.5,0,0.7,0c0.9,0,1.5,0.2,2,0.6c0.4,0.4,0.7,1,0.7,1.9
	c0,0.3,0,0.7-0.1,1.1c0,0.4-0.1,0.8-0.2,1.2c-0.1,0.4-0.1,0.8-0.2,1.2c0,0.4-0.1,0.8-0.1,1.1c0,0.5,0.1,1,0.2,1.3
	c0.2,0.4,0.3,0.6,0.6,0.8c0.2,0.2,0.5,0.4,0.7,0.4c0.3,0.1,0.5,0.1,0.7,0.1c0.6,0,1.3-0.2,1.8-0.6c0.6-0.4,1.1-0.9,1.6-1.5
	s0.9-1.2,1.3-1.9c0.4-0.7,0.7-1.2,1-1.7c0.1-0.1,0.2-0.2,0.3-0.3c0.1-0.1,0.3-0.1,0.4-0.1c0.3,0,0.5,0.1,0.6,0.3
	c0.1,0.2,0.2,0.4,0.2,0.6s0,0.3-0.1,0.4c-0.3,0.6-0.7,1.3-1.2,2.1s-1,1.5-1.6,2.2s-1.2,1.2-2,1.7c-0.7,0.5-1.5,0.7-2.4,0.7
	c-0.5,0-1.1-0.1-1.5-0.3c-0.5-0.2-0.9-0.5-1.3-0.9c-0.4-0.4-0.6-0.9-0.8-1.4c-0.2-0.6-0.3-1.2-0.3-1.9c0-0.8,0.1-1.5,0.2-2.2
	c0.2-0.7,0.2-1.5,0.2-2.1c0-0.3-0.1-0.5-0.2-0.6c-0.1-0.1-0.4-0.2-0.8-0.2h-0.7C180.9,35,180.6,35,180.3,35L180.3,35z M177.8,33.4h1
	c0-0.1,0-0.2,0-0.4c0-0.2,0-0.3,0-0.5s-0.1-0.3-0.1-0.4s-0.1-0.2-0.1-0.2s-0.1,0.1-0.2,0.2c-0.1,0.1-0.1,0.2-0.2,0.4
	c-0.1,0.2-0.1,0.3-0.2,0.5C177.9,33.1,177.9,33.3,177.8,33.4L177.8,33.4z M195.6,26.6c0,0.6-0.2,1.1-0.6,1.5
	c-0.4,0.4-0.9,0.6-1.5,0.6s-1.1-0.2-1.5-0.6s-0.6-0.9-0.6-1.5c0-0.3,0.1-0.6,0.2-0.8c0.1-0.2,0.3-0.5,0.4-0.7
	c0.2-0.2,0.4-0.3,0.7-0.4c0.2-0.1,0.5-0.2,0.8-0.2s0.6,0.1,0.8,0.2s0.5,0.3,0.7,0.4c0.2,0.2,0.3,0.4,0.4,0.7
	C195.6,26.1,195.6,26.3,195.6,26.6z M192,39.8c0-2.2,0.1-4.3,0.4-6.5c0-0.2,0.1-0.4,0.3-0.6s0.4-0.2,0.6-0.2c0.2,0,0.4,0.1,0.6,0.3
	c0.2,0.2,0.2,0.4,0.2,0.6c0,0.1,0,0.4-0.1,0.8c0,0.5-0.1,1-0.1,1.6c-0.1,0.6-0.1,1.3-0.1,2s-0.1,1.3-0.1,1.9c0,0.8,0.1,1.4,0.2,1.9
	c0.2,0.5,0.4,0.9,0.6,1.1c0.2,0.3,0.5,0.5,0.8,0.5c0.3,0.1,0.5,0.1,0.8,0.1c0.4,0,0.9-0.1,1.3-0.4c0.5-0.3,0.9-0.7,1.4-1.3
	c0.5-0.5,1-1.2,1.4-1.9c0.5-0.8,1-1.6,1.4-2.5c0.1-0.1,0.2-0.3,0.3-0.3c0.1-0.1,0.3-0.1,0.5-0.1s0.4,0.1,0.6,0.3
	c0.2,0.2,0.2,0.4,0.2,0.6s0,0.3-0.1,0.4c-0.2,0.3-0.4,0.8-0.7,1.3s-0.6,1-0.9,1.5c-0.3,0.5-0.7,1-1.1,1.6c-0.4,0.5-0.9,1-1.3,1.4
	c-0.5,0.4-1,0.7-1.5,1s-1,0.4-1.6,0.4c-0.7,0-1.3-0.1-1.8-0.4s-0.9-0.7-1.3-1.1c-0.4-0.5-0.6-1.1-0.8-1.7
	C192.1,41.3,192,40.6,192,39.8L192,39.8z M194.4,26.6c0-0.2-0.1-0.4-0.2-0.6c-0.2-0.2-0.3-0.2-0.6-0.2c-0.2,0-0.4,0.1-0.5,0.2
	c-0.2,0.2-0.2,0.3-0.2,0.6c0,0.2,0.1,0.4,0.2,0.5c0.2,0.2,0.3,0.2,0.5,0.2s0.4-0.1,0.6-0.2C194.3,27,194.4,26.8,194.4,26.6z
	 M219.1,38c-0.1,0.1-0.2,0.4-0.4,0.8s-0.4,0.8-0.7,1.3s-0.6,1-1,1.6c-0.4,0.5-0.8,1-1.3,1.5s-1,0.8-1.6,1.1s-1.1,0.4-1.8,0.4
	c-0.9,0-1.6-0.3-2.2-0.8c-0.6-0.6-1-1.3-1.3-2.1c-0.5,0.9-1.1,1.5-1.8,2s-1.4,0.8-2.1,0.8c-0.6,0-1.1-0.1-1.5-0.3
	c-0.5-0.2-0.8-0.5-1.1-0.9s-0.6-0.8-0.7-1.3c-0.2-0.5-0.3-1-0.3-1.6c0-1.2,0.2-2.2,0.6-3.1c0.4-0.9,0.9-1.6,1.5-2.2s1.3-1.1,2-1.4
	s1.5-0.5,2.2-0.5c0.5,0,0.9,0.1,1.3,0.2c0.4,0.1,0.7,0.3,1,0.4c0.3,0.2,0.5,0.3,0.6,0.4s0.2,0.2,0.2,0.2c0.2,0.2,0.2,0.4,0.2,0.6
	s-0.1,0.4-0.2,0.6c-0.2,0.2-0.4,0.3-0.6,0.3c-0.2,0-0.4-0.1-0.6-0.2c0,0-0.1-0.1-0.2-0.2c-0.1-0.1-0.3-0.2-0.4-0.3
	c-0.2-0.1-0.4-0.2-0.6-0.2c-0.2-0.1-0.5-0.1-0.8-0.1c-0.5,0-1,0.1-1.5,0.3c-0.5,0.2-1,0.5-1.4,1c-0.4,0.4-0.8,1-1.1,1.7
	s-0.4,1.5-0.4,2.4c0,0.3,0,0.6,0.1,0.9s0.2,0.6,0.3,0.8c0.1,0.2,0.3,0.4,0.6,0.6s0.6,0.2,1,0.2c0.3,0,0.6-0.1,0.9-0.3
	c0.4-0.2,0.7-0.5,1-0.8c0.3-0.4,0.6-0.8,0.9-1.4c0.3-0.6,0.4-1.2,0.6-2c0-0.2,0.1-0.4,0.3-0.5s0.4-0.2,0.6-0.2
	c0.2,0,0.4,0.1,0.6,0.2c0.2,0.2,0.2,0.4,0.3,0.6c0,0.3,0,0.7,0.1,1.2c0,0.5,0.1,1,0.3,1.5s0.4,1,0.7,1.3c0.3,0.4,0.8,0.6,1.3,0.6
	c0.4,0,0.7-0.1,1.1-0.3c0.4-0.2,0.7-0.5,1-0.8s0.7-0.7,1-1.1s0.6-0.8,0.8-1.3c0.3-0.4,0.5-0.8,0.7-1.2c0.2-0.4,0.4-0.7,0.5-1
	c0.1-0.2,0.2-0.3,0.3-0.4s0.3-0.1,0.5-0.1c0.3,0,0.5,0.1,0.6,0.3c0.2,0.2,0.2,0.4,0.2,0.6C219.2,37.8,219.1,37.9,219.1,38L219.1,38z
	"/>
<path id="path54" class="st0" d="M114.4,65.2c0.2,0.3,0.3,0.6,0.4,1s0.2,0.8,0.2,1.3s-0.1,1-0.3,1.4c-0.2,0.5-0.4,0.9-0.7,1.2
	c-0.3,0.3-0.7,0.6-1.1,0.9c-0.8,0.5-1.7,0.8-2.7,1l0.6,0.8c0.2,0.2,0.4,0.5,0.6,0.9c0.3,0.4,0.5,0.7,0.6,0.9
	c0.2,0.2,0.4,0.5,0.6,0.8s0.5,0.6,0.7,0.8c0.5,0.5,0.9,1,1.4,1.3c0.5,0.4,1.2,0.5,2.3,0.5c0.1,0.1,0.2,0.3,0.2,0.5
	c0,0.6-0.6,0.9-1.9,0.9s-2.2-0.2-2.9-0.6l0,0c-1-0.8-2.2-2.5-3.5-4.9l-1-1.8h-3.2v5.2c0,0.1,0.2,0.3,0.5,0.4c0.3,0.1,0.6,0.2,1,0.3
	c0.3,0.1,0.5,0.2,0.5,0.3c0,0.3-0.1,0.5-0.2,0.6c-0.1,0.2-0.3,0.3-0.7,0.3c-0.4,0.1-0.9,0.1-1.6,0.1c-0.6,0-1.1,0-1.3,0
	c-0.2,0-0.5,0-0.7,0s-0.4,0-0.7,0c-0.2,0-0.4,0-0.6-0.1c-0.2,0-0.3-0.1-0.5-0.2c-0.3-0.1-0.4-0.3-0.4-0.6c0-0.2,0.1-0.4,0.3-0.5
	c0.2-0.1,0.4-0.1,0.7-0.1c0.6,0,1-0.2,1-0.5V65c0-0.2-0.2-0.3-0.5-0.4c-0.3-0.1-0.6-0.1-1-0.2c-0.3-0.1-0.5-0.2-0.5-0.3
	c0-0.2,0.1-0.3,0.2-0.4c0.1-0.1,0.3-0.2,0.5-0.3s0.4-0.1,0.6-0.2c0.2,0,0.5-0.1,0.8-0.1c0.5,0,1,0,1.6,0h2c2,0,3.3,0.1,4,0.2
	c0.7,0.1,1.2,0.2,1.7,0.3c0.4,0.1,0.8,0.2,1.1,0.4c0.3,0.1,0.6,0.3,0.9,0.5S114.2,65,114.4,65.2L114.4,65.2z M112.4,67.9
	c0-0.5-0.1-1-0.3-1.4c-0.2-0.4-0.5-0.8-0.8-1s-0.8-0.4-1.3-0.6c-0.8-0.3-1.8-0.4-2.8-0.4s-1.7,0.1-2,0.3s-0.4,0.7-0.4,1.3v4.6h3.1
	C110.9,70.7,112.4,69.8,112.4,67.9z M126,72c-0.3,0-0.6-0.1-1-0.3s-0.5-0.5-0.5-0.9s0.1-0.7,0.3-1c0.2-0.3,0.5-0.6,0.8-0.8
	s0.7-0.4,1.2-0.5c0.8-0.3,1.7-0.4,2.6-0.4c1.6,0,2.7,0.3,3.4,1s1.1,1.8,1.1,3.4v3.4c0,0.8,0.1,1.3,0.3,1.5c0.1,0.1,0.2,0.1,0.5,0.2
	c0.8,0.2,1.2,0.4,1.2,0.6c0,0.8-0.8,1.2-2.5,1.2c-0.6,0-1-0.1-1.2-0.4s-0.3-0.8-0.3-1.5c-0.3,0.6-0.9,1.1-1.6,1.5
	c-0.7,0.4-1.5,0.6-2.3,0.6s-1.5-0.1-2.1-0.3s-1-0.5-1.4-1s-0.5-1-0.5-1.5s0.1-1,0.2-1.3s0.3-0.6,0.5-0.8s0.4-0.4,0.8-0.6
	c0.3-0.2,0.6-0.3,0.9-0.4c0.3-0.1,0.6-0.2,1.1-0.3c0.6-0.1,1.2-0.2,1.6-0.3c0.4-0.1,0.7-0.1,0.7-0.1s0.3,0,0.8-0.1s0.9-0.2,1.1-0.3
	c0-1.5-0.2-2.4-0.6-2.9c-0.3-0.4-0.9-0.6-1.7-0.6s-1.4,0.2-1.8,0.6c-0.4,0.4-0.6,1-0.6,1.9v0.3C126.6,71.9,126.3,72,126,72L126,72z
	 M131.6,73.6c-0.5,0.2-1.1,0.3-1.8,0.4c-0.7,0.1-1.2,0.2-1.6,0.3c-0.4,0.1-0.7,0.2-0.9,0.4c-0.6,0.3-0.9,0.9-0.9,1.7
	c0,1.3,0.8,2,2.3,2c1.3,0,2.2-0.6,2.5-1.9C131.5,75.7,131.6,74.8,131.6,73.6L131.6,73.6z M143.7,79c-0.1-0.1-0.2-0.2-0.3-0.3
	s-0.1-0.3-0.1-0.4c0-0.2,0.1-0.3,0.2-0.4c0.2-0.1,0.3-0.1,0.5-0.1s0.4-0.1,0.5-0.2c0.2-0.1,0.2-0.3,0.2-0.5v-7.4H144
	c-0.2,0-0.4-0.1-0.5-0.2c-0.1-0.1-0.2-0.3-0.2-0.6s0.1-0.4,0.2-0.5c0.1-0.1,0.4-0.1,0.7-0.1h0.6v-1.7c0-1.3,0.4-2.3,1.2-3
	s1.8-1,3.2-1c1.1,0,1.9,0.2,2.4,0.7c0.3,0.2,0.4,0.6,0.4,1c0,0.9-0.5,1.4-1.4,1.4c-0.8,0-1.2-0.5-1.2-1.4v-0.2
	c-0.3-0.1-0.6-0.2-0.9-0.2c-1.3,0-2,0.7-2,2.1c0,0.9,0.2,1.7,0.5,2.4h1.7c0.6,0,0.8,0.2,0.8,0.5s-0.1,0.5-0.2,0.7
	c-0.2,0.2-0.3,0.3-0.5,0.3H147v7.4c0,0.4,0.2,0.7,0.7,0.7s0.7,0.2,0.7,0.6c0,0.4-0.3,0.7-0.9,0.8c-0.4,0.1-0.8,0.1-1.2,0.1h-0.9
	c-0.2,0-0.3,0-0.5,0c-0.1,0-0.3,0-0.5,0s-0.4,0-0.5-0.1C143.9,79.1,143.8,79.1,143.7,79L143.7,79z M159.1,64.8c0-0.3,0.2-0.7,0.5-1
	s0.7-0.4,1.1-0.4c0.4,0,0.8,0.1,1.1,0.4c0.4,0.2,0.5,0.6,0.5,0.9c0,0.4-0.2,0.7-0.5,1s-0.7,0.4-1.1,0.4c-0.4,0-0.8-0.1-1.2-0.4
	C159.3,65.5,159.1,65.2,159.1,64.8L159.1,64.8z M161.6,79.3h-1c-1,0-1.6-0.2-1.9-0.5c-0.1-0.1-0.2-0.3-0.2-0.5s0.1-0.3,0.2-0.4
	c0.2-0.1,0.3-0.1,0.5-0.1s0.4-0.1,0.5-0.2c0.2-0.1,0.2-0.3,0.2-0.5v-6.2c0-0.7-0.3-1.1-0.8-1.1c-0.1,0-0.1,0-0.2,0h-0.2h-0.1
	c-0.1,0-0.1,0-0.1,0s-0.1,0-0.1-0.1c-0.1,0-0.1-0.1-0.1-0.3s0.1-0.4,0.3-0.6c0.4-0.4,1-0.5,1.8-0.5c0.7,0,1.1,0,1.2,0.1
	c0.1,0.1,0.2,0.1,0.3,0.2c0.2,0.1,0.2,0.3,0.2,0.6v8.1c0,0.4,0.2,0.7,0.7,0.7s0.7,0.2,0.7,0.6c0,0.4-0.2,0.7-0.7,0.8
	C162.7,79.2,162.2,79.3,161.6,79.3L161.6,79.3z M174.7,79.3h-1c-1,0-1.6-0.2-1.9-0.5c-0.1-0.1-0.2-0.3-0.2-0.5s0.1-0.3,0.2-0.4
	c0.2-0.1,0.3-0.1,0.5-0.1s0.4-0.1,0.5-0.2c0.2-0.1,0.2-0.3,0.2-0.5V64.9c0-0.7-0.3-1.1-0.8-1.1c-0.1,0-0.1,0-0.2,0
	c-0.1,0-0.1,0-0.2,0h-0.1c-0.1,0-0.1,0-0.1,0s-0.1,0-0.1-0.1c-0.1,0-0.1-0.1-0.1-0.3s0.1-0.4,0.3-0.6c0.4-0.4,1-0.5,1.8-0.5
	s1.2,0,1.4,0.1c0.3,0.2,0.4,0.4,0.4,0.7v10c0.3-0.2,0.9-0.7,2-1.5c2-1.5,3.1-2.3,3.1-2.4c0-0.2-0.3-0.4-0.9-0.5c0-0.7,0.7-1,1.9-1
	h1.6c1.9,0,2.9,0.1,2.9,0.3c0,0.1-0.1,0.3-0.3,0.5s-0.4,0.4-0.7,0.5c-0.5,0-1.1,0.2-1.7,0.5c-0.7,0.3-1.5,0.9-2.4,1.6l-2,1.5
	l3.6,3.8c0.4,0.5,0.8,0.8,1.2,1s0.7,0.4,1,0.5s0.5,0.1,0.7,0.2l0.3,0.1c0.1,0,0.2,0,0.3,0.1c0.1,0,0.2,0.1,0.2,0.1
	c0.1,0.1,0.2,0.3,0.2,0.4c0,0.4-0.6,0.6-1.8,0.6h-0.6c-0.7,0-1.2,0-1.5-0.1s-0.6-0.2-0.9-0.5c-1.1-1.1-2.6-2.8-4.3-5.3l-2,1.3V77
	c0,0.4,0.2,0.7,0.7,0.7s0.7,0.2,0.7,0.6c0,0.4-0.2,0.7-0.7,0.8C175.8,79.2,175.3,79.3,174.7,79.3L174.7,79.3z M194.6,64.8
	c0-0.3,0.2-0.7,0.5-1s0.7-0.4,1.1-0.4c0.4,0,0.8,0.1,1.1,0.4c0.4,0.2,0.5,0.6,0.5,0.9c0,0.4-0.2,0.7-0.5,1s-0.7,0.4-1.1,0.4
	c-0.4,0-0.8-0.1-1.2-0.4C194.8,65.5,194.6,65.2,194.6,64.8L194.6,64.8z M197.1,79.3h-1c-1,0-1.6-0.2-1.9-0.5
	c-0.1-0.1-0.2-0.3-0.2-0.5s0.1-0.3,0.2-0.4c0.2-0.1,0.3-0.1,0.5-0.1s0.4-0.1,0.5-0.2c0.2-0.1,0.2-0.3,0.2-0.5v-6.2
	c0-0.7-0.3-1.1-0.8-1.1c-0.1,0-0.1,0-0.2,0h-0.2h-0.1c-0.1,0-0.1,0-0.1,0s-0.1,0-0.1-0.1c-0.1,0-0.1-0.1-0.1-0.3s0.1-0.4,0.3-0.6
	c0.4-0.4,1-0.5,1.8-0.5c0.7,0,1.1,0,1.2,0.1c0.1,0.1,0.2,0.1,0.3,0.2c0.2,0.1,0.2,0.3,0.2,0.6v8.1c0,0.4,0.2,0.7,0.7,0.7
	s0.7,0.2,0.7,0.6c0,0.4-0.2,0.7-0.7,0.8C198.2,79.2,197.7,79.3,197.1,79.3L197.1,79.3z"/>
</svg>
