<?xml version="1.0" encoding="utf-8"?>
<!-- Generator: Adobe Illustrator 26.1.0, SVG Export Plug-In . SVG Version: 6.00 Build 0)  -->
<svg version="1.1"
	 id="svg56" xmlns:inkscape="http://www.inkscape.org/namespaces/inkscape" xmlns:sodipodi="http://sodipodi.sourceforge.net/DTD/sodipodi-0.dtd" xmlns:svg="http://www.w3.org/2000/svg"
	 xmlns="http://www.w3.org/2000/svg" xmlns:xlink="http://www.w3.org/1999/xlink" x="0px" y="0px" viewBox="0 0 256 256"
	 style="enable-background:new 0 0 256 256;" xml:space="preserve">
<style type="text/css">
	.st0{fill:#FFFFFF;}
</style>
<sodipodi:namedview  bordercolor="#111111" borderopacity="1" id="namedview58" inkscape:current-layer="svg56" inkscape:cx="110.75449" inkscape:cy="114.20359" inkscape:deskcolor="#d1d1d1" inkscape:pagecheckerboard="1" inkscape:pageopacity="0" inkscape:showpageshadow="0" inkscape:window-height="1377" inkscape:window-maximized="1" inkscape:window-width="2560" inkscape:window-x="1912" inkscape:window-y="-8" inkscape:zoom="3.9140625" pagecolor="#ffffff" showgrid="false">
	</sodipodi:namedview>
<g id="g50" transform="matrix(1.9570383,0,0,1.9570383,-245.00203,-105.21056)">
	<path id="path32" class="st0" d="M206,118.4c0.2,0,0.4,0,0.6,0h0c0.5,0,0.9-0.3,1.1-0.7l4.6-10.3c0.2-0.4,0.1-0.9-0.2-1.3
		c0,0-0.1-0.1-0.1-0.1l1.3-2.6c4.1-1.5,3.8-6.9,3.8-7.1c0-0.3-0.1-0.5-0.3-0.7c-0.3-0.3-7.1-8.2-25-8.2c-0.9,0-2,0-2.9,0.1
		c-20.9,1-24,6.9-24.5,9.4c-0.4,2.9,2,4.8,2.1,4.8c0.1,0.1,0.2,0.1,0.2,0.1c0.5,0.2,0.9,0.4,1.4,0.5l2.2,5.3
		c-0.3,1.8-0.1,3.6,0.6,5.1c0.6,1.3,1.5,2.2,2.6,2.7l14.7,34.8c0.2,0.4,0.6,0.7,1.1,0.8h0c0.5,0,0.9-0.3,1.1-0.7l5.8-11.9
		c0.3-0.2,0.6-0.4,0.9-0.7c1.4-1.2,2.2-2.6,2.3-4.2c0-0.5,0-1-0.1-1.5L206,118.4z M191.3,125.3c0.1-0.1,0.3-0.1,0.3-0.2
		c0.3-0.3,0.4-0.7,0.4-1c-0.1-0.7-0.1-1.5,0-2c0.7,0.1,2.1,0.5,2.5,1.3c0.3,0.6,0,1.4-0.4,2.1c0,0.1-0.1,0.2-0.2,0.3
		c-0.2,0.4-0.4,0.7-0.7,1c-0.3,0.4-0.5,0.7-0.8,1c-1.6,1.9-3.2,2.9-4.3,2.9c-0.4,0-0.5-0.2-0.6-0.2c-0.1,0-0.1-0.1-0.1-0.1
		c-0.5-0.5-0.7-1.1-0.6-1.4c0.2-0.5,0.9-0.6,1.2-0.6c0.5-0.1,0.9-0.4,1-0.9c0.1-0.3,0.1-0.5,0-0.8c-0.1-0.2-0.2-0.4-0.4-0.5
		c-0.2-0.1-0.3-0.3-0.5-0.3c-1.4-1.1-2.7-2.2-3.2-2.9c0.7-0.6,1.4-1.2,1.9-1.5c0.9,1.2,2.7,3.3,2.9,3.7c0.1,0.1,0.1,0.1,0.2,0.2
		C190.4,125.4,190.9,125.5,191.3,125.3L191.3,125.3z M186.9,132.8C186.9,132.7,186.9,132.7,186.9,132.8c0.4,0.2,0.9,0.3,1.4,0.3
		c2.1,0,4.6-1.7,6.6-4.4c0.4,0.4,1.4,1.6,1.9,3.1c0.2,0.5,0.3,1.1,0.3,1.7c-0.1,0.9-0.5,1.7-1.4,2.5c-0.4,0.3-0.8,0.6-1.3,0.9
		c-0.9,0.5-1.8,0.8-2.5,0.8c-1.6,0-3-1.2-4.2-2.5C187.1,134.5,186.8,133.7,186.9,132.8L186.9,132.8z M196.5,126.8
		c-0.1-0.1-0.2-0.1-0.2-0.2c0,0,0-0.1,0.1-0.1c0.9-1.7,1.1-3.1,0.4-4.4c-1.1-2.1-4-2.5-4.6-2.5c-0.7-0.1-1.4,0.1-1.8,0.6
		c-0.2,0.2-0.3,0.5-0.5,0.8c-0.6-0.8-1.1-1.4-1.3-1.7c-0.3-0.4-0.8-0.7-1.3-0.7c-1.3,0-3.3,1.9-4.4,3c-0.3,0.3-0.4,0.7-0.4,1.1
		c0,0.3,0.1,1.3,3.3,3.9c-0.5,0.4-0.8,0.9-1,1.4c-0.3,0.8-0.2,1.6,0.2,2.4c-0.2,0.7-0.4,1.4-0.4,2.1c-0.1,1.6,0.4,3.1,1.5,4.1
		c1.5,1.5,3.4,3.2,5.9,3.2c0.3,0,0.7,0,1-0.1l-3.4,7l-12.9-30.6c0.4,0.1,0.9,0.1,1.3,0.1c2.5,0,4.4-1.3,5.9-4c0.7,0,1.7-0.3,2.5-5
		c0.4,0.1,0.8,0.2,1.1,0.2c1.7,0,3.1-1.3,3.5-3.3c0.2-1-0.1-2-0.8-2.9c-0.8-0.9-2-1.7-3.5-2.3h0c3.5,0,5.9-0.5,7.8-1
		c1.8-0.4,3.1-0.7,4.4-0.4c1.6,0.3,3.6,1.6,5.4,2.8c2,1.3,4.2,2.7,6.2,3.1l-0.4,0.9c-1-0.5-2.6-1-4.2-1c-1.3,0-2.4,0.4-3.2,1.1
		c-0.2,0.2-0.4,0.3-0.6,0.5c-0.8-0.3-1.7-0.5-2.7-0.5c-2.1,0-4.6,0.7-6.9,2c-1.7,0.9-2.6,2.1-2.7,3.5c-0.2,2.4,2,4.2,2.5,4.6
		c0.4,0.3,0.8,0.5,1.3,0.5c0.5,0,0.9-0.2,1.4-0.5c0.1,1,0.2,1.8,0.2,2.1c0,0.5,0.3,1.2,1.2,1.5c0.3,0.1,0.7,0.2,1.2,0.2
		c1.5,0,3.6-0.4,3.6-0.5c0.4-0.1,0.8-0.4,1-0.7c0.1-0.1,0.2-0.3,0.2-0.6c0.4,0.4,0.9,0.7,1.4,1l-5.5,11.3
		C197.4,127.7,196.6,126.9,196.5,126.8L196.5,126.8z M166.8,97.3c1-6.2,20-7.3,22.2-7.4c0.9,0,1.9-0.1,2.8-0.1
		c14.7,0,21.4,5.7,22.8,7.1c0,0.5-0.1,1.3-0.3,2c-0.2,0.6-0.5,1.3-1.1,1.7c-0.3,0.3-0.7,0.5-1.1,0.6c-0.2,0-0.4,0.1-0.5,0.1h0
		c-1.6,0-3.8-1.4-5.9-2.8c-0.7-0.5-1.5-1-2.2-1.4c-1.3-0.8-2.7-1.4-4-1.7c-0.6-0.1-1.1-0.2-1.7-0.2c-0.7,0-1.3,0.1-2,0.2
		c-0.6,0.1-1.1,0.2-1.8,0.4c-1.9,0.4-4,0.9-7.2,0.9c-1.9,0-4-0.2-6.2-0.5c-0.3,0-0.5-0.1-0.8-0.1c-1.9,0-3.4,1.1-4.9,2.1
		c-1.5,1-3,2-4.7,2h-0.2c-0.5,0-0.9-0.1-1.4-0.3c-0.2-0.1-0.3-0.1-0.5-0.2c-0.2-0.2-0.6-0.6-0.8-1.1
		C166.8,98.2,166.8,97.8,166.8,97.3L166.8,97.3z M201.7,108c0.2,0.7,0.1,1.3-0.1,1.5c-0.2,0.3-0.5,0.3-0.9,0.2
		c-0.2,0-0.4-0.1-0.6-0.2c-0.2-0.1-0.4-0.1-0.6-0.1c-0.3,0-0.5,0.1-0.8,0.3c-0.4,0.3-0.5,0.9-0.3,1.3c0.7,1.8,1.2,3.8,1.4,4.8
		c-0.8,0.1-1.8,0.3-2.4,0.3c-0.1-1.5-0.4-4.3-0.5-4.6c-0.1-0.5-0.5-1-1-1c-0.5-0.1-1.1,0.2-1.3,0.7c-0.3,0.6-0.8,1.3-1.1,1.6
		c-0.5-0.5-1.5-1.5-1.4-2.4c0.1-0.7,0.8-1.2,1.4-1.5c2-1.1,4.1-1.7,5.8-1.7c0.4,0,0.9,0,1.2,0.1c0.5,0.1,0.9,0.3,1.1,0.6
		C201.7,107.8,201.7,107.9,201.7,108L201.7,108z M203.5,111c0.7-0.9,0.9-2.3,0.5-3.7c-0.1-0.2-0.1-0.3-0.2-0.5
		c0.1-0.1,0.2-0.2,0.3-0.3c0.4-0.3,0.9-0.5,1.6-0.5c1.1,0,2.3,0.4,3.1,0.8c0.3,0.2,0.6,0.3,0.8,0.4l-3.9,8.8
		c-0.4-0.1-0.7-0.3-1.1-0.5c-0.7-0.4-1.4-1.1-2.3-1.9c-0.4-0.4-0.6-0.9-0.7-1.4C202.5,111.9,203.1,111.6,203.5,111L203.5,111z
		 M184.3,105l-0.2,1.1c-0.4-0.6-0.8-1.1-1.4-1.6c0.2-0.5,0-1-0.4-1.3c-0.4-0.3-1-0.3-1.4,0c0,0,0,0,0,0c-1.1-0.6-2-0.9-2-0.9h0
		c0-0.4,0.1-0.7,0.2-1c0.3-0.6,1.3-0.7,2-0.7c3.7,0,6.3,1.2,7.2,2.3c0.3,0.3,0.4,0.6,0.3,0.9c-0.2,0.9-0.7,1.4-1.1,1.4
		c-0.3,0-0.7-0.3-1-0.7c-0.3-0.4-0.8-0.6-1.3-0.5C184.7,104.1,184.3,104.5,184.3,105L184.3,105z M176.1,100.2
		c0.5-0.3,0.9-0.6,1.3-0.9c-0.2,0.2-0.4,0.4-0.5,0.6c-0.5,0.7-0.6,1.5-0.6,2.3c-1.5,0.2-3.5,0.7-4.7,2.1l-0.8-1.9
		C173,102.3,174.6,101.2,176.1,100.2L176.1,100.2z M172.9,107.4c0.1-0.3,0.2-0.6,0.3-0.9c0.5-1.3,2.3-1.7,3.6-1.8
		c0.6-0.1,1-0.1,1.2-0.1h0.2c0.2,0.1,0.8,0.3,1.4,0.6c0.4,0.2,0.9,0.5,1.3,0.8c0.3,0.3,0.7,0.6,0.9,0.9c0.2,0.2,0.3,0.5,0.4,0.7
		c0.3,0.6,0.3,1.2,0.2,1.8c-0.1,0.3-0.2,0.6-0.3,0.9c0,0.1-0.1,0.2-0.1,0.3c-0.2,0.4-0.4,0.8-0.6,1.1c-1.2,1.9-2.4,2.2-3.4,2.2
		c-0.8,0-1.6-0.2-2.5-0.4l-0.6-0.2c-0.4-0.1-0.8-0.4-1.1-0.7c-0.2-0.3-0.4-0.6-0.6-0.9c-0.2-0.4-0.3-0.9-0.4-1.5
		C172.6,109.3,172.7,108.4,172.9,107.4L172.9,107.4z"/>
	<path id="path34" class="st0" d="M224.8,118.1c-0.1-0.7-0.7-1.1-1.4-1.1l-9.7,1.2c-0.7,0.1-1.1,0.7-1.1,1.4
		c0.1,0.6,0.6,1.1,1.2,1.1h0.2l9.7-1.2C224.4,119.3,224.9,118.8,224.8,118.1C224.8,118.1,224.8,118.1,224.8,118.1L224.8,118.1z"/>
	<path id="path36" class="st0" d="M208.3,134.5c-0.5-0.5-1.2-0.5-1.7,0c-0.5,0.5-0.5,1.2,0,1.7l5.1,5.3c0.3,0.3,0.6,0.4,0.9,0.4
		s0.6-0.1,0.9-0.3c0.5-0.5,0.5-1.2,0-1.7L208.3,134.5L208.3,134.5z"/>
	<path id="path38" class="st0" d="M203.2,141.9c-0.3-0.6-1.1-0.8-1.7-0.4c-0.6,0.3-0.8,1.1-0.4,1.7l4.4,7c0.2,0.4,0.6,0.6,1,0.6
		c0.2,0,0.4-0.1,0.6-0.2c0.6-0.3,0.8-1.1,0.4-1.7L203.2,141.9z"/>
	<path id="path40" class="st0" d="M217.1,129.8l-5.2-2.2c-0.6-0.3-1.3,0-1.6,0.6c-0.3,0.6,0,1.3,0.6,1.6l5.2,2.2
		c0.2,0.1,0.3,0.1,0.5,0.1c0.5,0,0.9-0.3,1.1-0.8C218,130.8,217.7,130.1,217.1,129.8z"/>
	<path id="path42" class="st0" d="M172,137.4l-6.5,7.2c-0.4,0.5-0.4,1.3,0.1,1.7c0.2,0.2,0.5,0.3,0.8,0.3c0.3,0,0.7-0.1,0.9-0.4
		l6.5-7.2c0.4-0.5,0.4-1.3-0.1-1.7C173.1,136.8,172.4,136.9,172,137.4L172,137.4z"/>
	<path id="path44" class="st0" d="M164.9,123.9c0.7,0,1.2-0.5,1.2-1.2c0,0,0,0,0,0c0-0.7-0.5-1.2-1.2-1.2l-7.3-0.1
		c-0.7,0-1.2,0.5-1.2,1.2c0,0,0,0,0,0c0,0.7,0.5,1.2,1.2,1.2L164.9,123.9L164.9,123.9z"/>
	<path id="path46" class="st0" d="M158.2,112.8l6,1.8c0.1,0,0.2,0.1,0.3,0.1c0.5,0,1-0.3,1.2-0.8c0.2-0.6-0.2-1.3-0.8-1.5l-6-1.9
		c-0.6-0.2-1.3,0.2-1.5,0.8C157.2,111.9,157.6,112.6,158.2,112.8L158.2,112.8z"/>
	<path id="path48" class="st0" d="M169.2,129.2c-0.2-0.6-1-0.9-1.6-0.7c0,0,0,0,0,0l-6.7,2.8c-0.6,0.2-0.9,1-0.7,1.6c0,0,0,0,0,0
		c0.2,0.5,0.6,0.8,1.1,0.8c0.2,0,0.3,0,0.5-0.1l6.7-2.8C169.2,130.6,169.4,129.8,169.2,129.2L169.2,129.2z"/>
</g>
</svg>
