<?xml version="1.0" encoding="UTF-8" standalone="no"?>
<!-- Generator: Adobe Illustrator 26.1.0, SVG Export Plug-In . SVG Version: 6.00 Build 0)  -->

<svg
   version="1.1"
   id="svg56"
   x="0px"
   y="0px"
   viewBox="0 0 256 93.1"
   style="enable-background:new 0 0 256 93.1;"
   xml:space="preserve"
   sodipodi:docname="rafikilogo.svg"
   inkscape:version="1.2.1 (9c6d41e410, 2022-07-14)"
   xmlns:inkscape="http://www.inkscape.org/namespaces/inkscape"
   xmlns:sodipodi="http://sodipodi.sourceforge.net/DTD/sodipodi-0.dtd"
   xmlns="http://www.w3.org/2000/svg"
   xmlns:svg="http://www.w3.org/2000/svg"><defs
   id="defs36"><rect
     x="80.30249"
     y="20.324027"
     width="127.63488"
     height="58.894515"
     id="rect460" /></defs>
<style
   type="text/css"
   id="style20">
	.st0{fill:#FFFFFF;}
</style>
<sodipodi:namedview
   bordercolor="#111111"
   borderopacity="1"
   id="namedview58"
   inkscape:current-layer="svg56"
   inkscape:cx="141.09391"
   inkscape:cy="56.726618"
   inkscape:deskcolor="#d1d1d1"
   inkscape:pagecheckerboard="1"
   inkscape:pageopacity="0"
   inkscape:showpageshadow="0"
   inkscape:window-height="1377"
   inkscape:window-maximized="1"
   inkscape:window-width="2560"
   inkscape:window-x="1912"
   inkscape:window-y="-8"
   inkscape:zoom="11.070641"
   pagecolor="#ffffff"
   showgrid="false">
	</sodipodi:namedview>
<g
   id="g50"
   transform="translate(-152.78244,54.674649)">
	<path
   id="path32"
   class="st0"
   d="M219.8-5.7c0.2,0,0.4,0,0.6,0l0,0c0.5,0,0.9-0.3,1.1-0.7l4.6-10.3c0.2-0.4,0.1-0.9-0.2-1.3   l-0.1-0.1l1.3-2.6c4.1-1.5,3.8-6.9,3.8-7.1c0-0.3-0.1-0.5-0.3-0.7c-0.3-0.3-7.1-8.2-25-8.2c-0.9,0-2,0-2.9,0.1   c-20.9,1-24,6.9-24.5,9.4c-0.4,2.9,2,4.8,2.1,4.8c0.1,0.1,0.2,0.1,0.2,0.1c0.5,0.2,0.9,0.4,1.4,0.5l2.2,5.3   c-0.3,1.8-0.1,3.6,0.6,5.1c0.6,1.3,1.5,2.2,2.6,2.7l14.8,34.8c0.2,0.4,0.6,0.7,1.1,0.8l0,0c0.5,0,0.9-0.3,1.1-0.7l5.8-11.9   c0.3-0.2,0.6-0.4,0.9-0.7c1.4-1.2,2.2-2.6,2.3-4.2c0-0.5,0-1-0.1-1.5L219.8-5.7z M205.1,1.2c0.1-0.1,0.3-0.1,0.3-0.2   c0.3-0.3,0.4-0.7,0.4-1c-0.1-0.7-0.1-1.5,0-2c0.7,0.1,2.1,0.5,2.5,1.3c0.3,0.6,0,1.4-0.4,2.1c0,0.1-0.1,0.2-0.2,0.3   c-0.2,0.4-0.4,0.7-0.7,1c-0.3,0.4-0.5,0.7-0.8,1c-1.6,1.9-3.2,2.9-4.3,2.9c-0.4,0-0.5-0.2-0.6-0.2s-0.1-0.1-0.1-0.1   c-0.5-0.5-0.7-1.1-0.6-1.4c0.2-0.5,0.9-0.6,1.2-0.6c0.5-0.1,0.9-0.4,1-0.9c0.1-0.3,0.1-0.5,0-0.8c-0.1-0.2-0.2-0.4-0.4-0.5   s-0.3-0.3-0.5-0.3c-1.4-1.1-2.7-2.2-3.2-2.9c0.7-0.6,1.4-1.2,1.9-1.5c0.9,1.2,2.7,3.3,2.9,3.7c0.1,0.1,0.1,0.1,0.2,0.2   C204.2,1.3,204.7,1.4,205.1,1.2L205.1,1.2z M200.7,8.7C200.7,8.6,200.7,8.6,200.7,8.7c0.4,0.2,0.9,0.3,1.4,0.3   c2.1,0,4.6-1.7,6.6-4.4c0.4,0.4,1.4,1.6,1.9,3.1c0.2,0.5,0.3,1.1,0.3,1.7c-0.1,0.9-0.5,1.7-1.4,2.5c-0.4,0.3-0.8,0.6-1.3,0.9   c-0.9,0.5-1.8,0.8-2.5,0.8c-1.6,0-3-1.2-4.2-2.5C200.9,10.4,200.6,9.6,200.7,8.7L200.7,8.7z M210.3,2.7c-0.1-0.1-0.2-0.1-0.2-0.2   c0,0,0-0.1,0.1-0.1c0.9-1.7,1.1-3.1,0.4-4.4c-1.1-2.1-4-2.5-4.6-2.5c-0.7-0.1-1.4,0.1-1.8,0.6c-0.2,0.2-0.3,0.5-0.5,0.8   c-0.6-0.8-1.1-1.4-1.3-1.7c-0.3-0.4-0.8-0.7-1.3-0.7c-1.3,0-3.3,1.9-4.4,3c-0.3,0.3-0.4,0.7-0.4,1.1c0,0.3,0.1,1.3,3.3,3.9   c-0.5,0.4-0.8,0.9-1,1.4c-0.3,0.8-0.2,1.6,0.2,2.4c-0.2,0.7-0.4,1.4-0.4,2.1c-0.1,1.6,0.4,3.1,1.5,4.1c1.5,1.5,3.4,3.2,5.9,3.2   c0.3,0,0.7,0,1-0.1l-3.4,7L190.5-7.9c0.4,0.1,0.9,0.1,1.3,0.1c2.5,0,4.4-1.3,5.9-4c0.7,0,1.7-0.3,2.5-5c0.4,0.1,0.8,0.2,1.1,0.2   c1.7,0,3.1-1.3,3.5-3.3c0.2-1-0.1-2-0.8-2.9c-0.8-0.9-2-1.7-3.5-2.3l0,0c3.5,0,5.9-0.5,7.8-1c1.8-0.4,3.1-0.7,4.4-0.4   c1.6,0.3,3.6,1.6,5.4,2.8c2,1.3,4.2,2.7,6.2,3.1l-0.4,0.9c-1-0.5-2.6-1-4.2-1c-1.3,0-2.4,0.4-3.2,1.1c-0.2,0.2-0.4,0.3-0.6,0.5   c-0.8-0.3-1.7-0.5-2.7-0.5c-2.1,0-4.6,0.7-6.9,2c-1.7,0.9-2.6,2.1-2.7,3.5c-0.2,2.4,2,4.2,2.5,4.6c0.4,0.3,0.8,0.5,1.3,0.5   s0.9-0.2,1.4-0.5c0.1,1,0.2,1.8,0.2,2.1c0,0.5,0.3,1.2,1.2,1.5c0.3,0.1,0.7,0.2,1.2,0.2c1.5,0,3.6-0.4,3.6-0.5   c0.4-0.1,0.8-0.4,1-0.7c0.1-0.1,0.2-0.3,0.2-0.6c0.4,0.4,0.9,0.7,1.4,1l-5.5,11.3C211.2,3.6,210.4,2.8,210.3,2.7L210.3,2.7z    M180.6-26.8c1-6.2,20-7.3,22.2-7.4c0.9,0,1.9-0.1,2.8-0.1c14.7,0,21.4,5.7,22.8,7.1c0,0.5-0.1,1.3-0.3,2c-0.2,0.6-0.5,1.3-1.1,1.7   c-0.3,0.3-0.7,0.5-1.1,0.6c-0.2,0-0.4,0.1-0.5,0.1l0,0c-1.6,0-3.8-1.4-5.9-2.8c-0.7-0.5-1.5-1-2.2-1.4c-1.3-0.8-2.7-1.4-4-1.7   c-0.6-0.1-1.1-0.2-1.7-0.2c-0.7,0-1.3,0.1-2,0.2c-0.6,0.1-1.1,0.2-1.8,0.4c-1.9,0.4-4,0.9-7.2,0.9c-1.9,0-4-0.2-6.2-0.5   c-0.3,0-0.5-0.1-0.8-0.1c-1.9,0-3.4,1.1-4.9,2.1s-3,2-4.7,2h-0.2c-0.5,0-0.9-0.1-1.4-0.3c-0.2-0.1-0.3-0.1-0.5-0.2   c-0.2-0.2-0.6-0.6-0.8-1.1C180.6-25.9,180.6-26.4,180.6-26.8L180.6-26.8z M215.5-16.1c0.2,0.7,0.1,1.3-0.1,1.5   c-0.2,0.3-0.5,0.3-0.9,0.2c-0.2,0-0.4-0.1-0.6-0.2c-0.2-0.1-0.4-0.1-0.6-0.1c-0.3,0-0.5,0.1-0.8,0.3c-0.4,0.3-0.5,0.9-0.3,1.3   c0.7,1.8,1.2,3.8,1.4,4.8c-0.8,0.1-1.8,0.3-2.4,0.3c-0.1-1.5-0.4-4.3-0.5-4.6c-0.1-0.5-0.5-1-1-1c-0.5-0.1-1.1,0.2-1.3,0.7   c-0.3,0.6-0.8,1.3-1.1,1.6c-0.5-0.5-1.5-1.5-1.4-2.4c0.1-0.7,0.8-1.2,1.4-1.5c2-1.1,4.1-1.7,5.8-1.7c0.4,0,0.9,0,1.2,0.1   c0.5,0.1,0.9,0.3,1.1,0.6C215.5-16.3,215.5-16.2,215.5-16.1L215.5-16.1z M217.3-13.1c0.7-0.9,0.9-2.3,0.5-3.7   c-0.1-0.2-0.1-0.3-0.2-0.5c0.1-0.1,0.2-0.2,0.3-0.3c0.4-0.3,0.9-0.5,1.6-0.5c1.1,0,2.3,0.4,3.1,0.8c0.3,0.2,0.6,0.3,0.8,0.4   l-3.9,8.8c-0.4-0.1-0.7-0.3-1.1-0.5c-0.7-0.4-1.4-1.1-2.3-1.9c-0.4-0.4-0.6-0.9-0.7-1.4C216.3-12.2,216.9-12.6,217.3-13.1z    M198-19.2l-0.2,1.1c-0.4-0.6-0.8-1.1-1.4-1.6c0.2-0.5,0-1-0.4-1.3s-1-0.3-1.4,0l0,0c-1.1-0.6-2-0.9-2-0.9l0,0c0-0.4,0.1-0.7,0.2-1   c0.3-0.6,1.3-0.7,2-0.7c3.7,0,6.3,1.2,7.2,2.3c0.3,0.3,0.4,0.6,0.3,0.9c-0.2,0.9-0.7,1.4-1.1,1.4c-0.3,0-0.7-0.3-1-0.7   s-0.8-0.6-1.3-0.5C198.5-20.1,198.1-19.7,198-19.2z M189.9-23.9c0.5-0.3,0.9-0.6,1.3-0.9c-0.2,0.2-0.4,0.4-0.5,0.6   c-0.5,0.7-0.6,1.5-0.6,2.3c-1.5,0.2-3.5,0.7-4.7,2.1l-0.8-1.9C186.8-21.8,188.4-22.9,189.9-23.9L189.9-23.9z M186.7-16.7   c0.1-0.3,0.2-0.6,0.3-0.9c0.5-1.3,2.3-1.7,3.6-1.8c0.6-0.1,1-0.1,1.2-0.1h0.2c0.2,0.1,0.8,0.3,1.4,0.6c0.4,0.2,0.8,0.5,1.3,0.8   c0.3,0.3,0.7,0.6,0.9,0.9c0.2,0.2,0.3,0.5,0.4,0.7c0.3,0.6,0.3,1.2,0.2,1.8c-0.1,0.3-0.2,0.6-0.3,0.9c0,0.1-0.1,0.2-0.1,0.3   c-0.2,0.4-0.4,0.8-0.6,1.1c-1.2,1.9-2.4,2.2-3.4,2.2c-0.8,0-1.6-0.2-2.5-0.4l-0.6-0.2c-0.4-0.1-0.8-0.4-1.1-0.7   c-0.2-0.3-0.4-0.6-0.6-0.9c-0.2-0.4-0.3-0.9-0.4-1.5C186.4-14.8,186.5-15.8,186.7-16.7z" />
	<path
   id="path34"
   class="st0"
   d="M238.6-6.1c-0.1-0.7-0.7-1.1-1.4-1.1L227.5-6c-0.7,0.1-1.1,0.7-1.1,1.4c0.1,0.6,0.6,1.1,1.2,1.1   h0.2l9.7-1.2C238.2-4.8,238.7-5.3,238.6-6.1C238.6-6,238.6-6,238.6-6.1z" />
	<path
   id="path36"
   class="st0"
   d="M222.1,10.4c-0.5-0.5-1.2-0.5-1.7,0s-0.5,1.2,0,1.7l5.1,5.3c0.3,0.3,0.6,0.4,0.9,0.4   s0.6-0.1,0.9-0.3c0.5-0.5,0.5-1.2,0-1.7L222.1,10.4L222.1,10.4z" />
	<path
   id="path38"
   class="st0"
   d="M216.9,17.8c-0.3-0.6-1.1-0.8-1.7-0.4c-0.6,0.3-0.8,1.1-0.4,1.7l4.4,7c0.2,0.4,0.6,0.6,1,0.6   c0.2,0,0.4-0.1,0.6-0.2c0.6-0.3,0.8-1.1,0.4-1.7L216.9,17.8z" />
	<path
   id="path40"
   class="st0"
   d="M230.9,5.7l-5.2-2.2c-0.6-0.3-1.3,0-1.6,0.6s0,1.3,0.6,1.6l5.2,2.2c0.2,0.1,0.3,0.1,0.5,0.1   c0.5,0,0.9-0.3,1.1-0.8C231.8,6.7,231.5,5.9,230.9,5.7z" />
	<path
   id="path42"
   class="st0"
   d="M185.7,13.2l-6.5,7.2c-0.4,0.5-0.4,1.3,0.1,1.7c0.2,0.2,0.5,0.3,0.8,0.3s0.7-0.1,0.9-0.4l6.5-7.2   c0.4-0.5,0.4-1.3-0.1-1.7C186.9,12.7,186.2,12.7,185.7,13.2L185.7,13.2z" />
	<path
   id="path44"
   class="st0"
   d="M178.7-0.2c0.7,0,1.2-0.5,1.2-1.2l0,0c0-0.7-0.5-1.2-1.2-1.2l-7.3-0.1c-0.7,0-1.2,0.5-1.2,1.2l0,0   c0,0.7,0.5,1.2,1.2,1.2L178.7-0.2L178.7-0.2z" />
	<path
   id="path46"
   class="st0"
   d="M172-11.4l6,1.8c0.1,0,0.2,0.1,0.3,0.1c0.5,0,1-0.3,1.2-0.8c0.2-0.6-0.2-1.3-0.8-1.5l-6-1.9   c-0.6-0.2-1.3,0.2-1.5,0.8C171-12.2,171.4-11.6,172-11.4L172-11.4z" />
	<path
   id="path48"
   class="st0"
   d="M183,5.1c-0.2-0.6-1-0.9-1.6-0.7l0,0l-6.7,2.8c-0.6,0.2-0.9,1-0.7,1.6l0,0   c0.2,0.5,0.6,0.8,1.1,0.8c0.2,0,0.3,0,0.5-0.1l6.7-2.8C182.9,6.5,183.2,5.7,183,5.1z" />
</g>


<text
   xml:space="preserve"
   id="text458"
   style="font-style:normal;font-variant:normal;font-weight:normal;font-stretch:normal;font-size:37.3333px;font-family:'Imprint MT Shadow';-inkscape-font-specification:'Imprint MT Shadow';font-variant-ligatures:normal;font-variant-caps:normal;font-variant-numeric:normal;font-variant-east-asian:normal;white-space:pre;shape-inside:url(#rect460);display:inline;fill:#ffffff;fill-opacity:1"
   transform="matrix(1.0510245,0,0,1.1557268,7.2203948,-7.7724707)"><tspan
     x="80.302734"
     y="52.79722"
     id="tspan1602"><tspan
       style="-inkscape-font-specification:'Imprint MT Shadow, Normal'"
       id="tspan1600">Pizzeria</tspan></tspan></text><text
   xml:space="preserve"
   style="font-style:normal;font-variant:normal;font-weight:normal;font-stretch:normal;font-size:24px;font-family:'Imprint MT Shadow';-inkscape-font-specification:'Imprint MT Shadow, Normal';font-variant-ligatures:normal;font-variant-caps:normal;font-variant-numeric:normal;font-variant-east-asian:normal;letter-spacing:2.21px;fill:#ffffff;fill-opacity:1"
   x="96.117889"
   y="75.320572"
   id="text1487"><tspan
     sodipodi:role="line"
     id="tspan1485"
     x="96.117889"
     y="75.320572"
     style="font-style:normal;font-variant:normal;font-weight:normal;font-stretch:normal;font-size:24px;font-family:'Felix Titling';-inkscape-font-specification:'Felix Titling, Normal';font-variant-ligatures:normal;font-variant-caps:normal;font-variant-numeric:normal;font-variant-east-asian:normal">Rafiki</tspan></text></svg>
