<?xml version="1.0" encoding="utf-8"?>
<!-- Generator: Adobe Illustrator 26.1.0, SVG Export Plug-In . SVG Version: 6.00 Build 0)  -->
<svg version="1.1"
	 id="svg56" xmlns:inkscape="http://www.inkscape.org/namespaces/inkscape" xmlns:sodipodi="http://sodipodi.sourceforge.net/DTD/sodipodi-0.dtd" xmlns:svg="http://www.w3.org/2000/svg"
	 xmlns="http://www.w3.org/2000/svg" xmlns:xlink="http://www.w3.org/1999/xlink" x="0px" y="0px" viewBox="0 0 256 256"
	 style="enable-background:new 0 0 256 256;" xml:space="preserve">
<style type="text/css">
	.st0{fill:#FFFFFF;}
</style>
<sodipodi:namedview  bordercolor="#111111" borderopacity="1" id="namedview58" inkscape:current-layer="svg56" inkscape:cx="128" inkscape:cy="128" inkscape:deskcolor="#d1d1d1" inkscape:pagecheckerboard="1" inkscape:pageopacity="0" inkscape:showpageshadow="0" inkscape:window-height="1377" inkscape:window-maximized="1" inkscape:window-width="2560" inkscape:window-x="1912" inkscape:window-y="-8" inkscape:zoom="3.9140625" pagecolor="#ffffff" showgrid="false">
	</sodipodi:namedview>
<g id="g50" transform="translate(-152.78244,54.674649)">
	<path id="path32" class="st0" d="M219.8,64.2c0.2,0,0.4,0,0.6,0h0c0.5,0,0.9-0.3,1.1-0.7l4.6-10.3c0.2-0.4,0.1-0.9-0.2-1.3
		c0,0-0.1-0.1-0.1-0.1l1.3-2.6c4.1-1.5,3.8-6.9,3.8-7.1c0-0.3-0.1-0.5-0.3-0.7c-0.3-0.3-7.1-8.2-25-8.2c-0.9,0-2,0-2.9,0.1
		c-20.9,1-24,6.9-24.5,9.4c-0.4,2.9,2,4.8,2.1,4.8c0.1,0.1,0.2,0.1,0.2,0.1c0.5,0.2,0.9,0.4,1.4,0.5l2.2,5.3
		c-0.3,1.8-0.1,3.6,0.6,5.1c0.6,1.3,1.5,2.2,2.6,2.7L202.1,96c0.2,0.4,0.6,0.7,1.1,0.8h0c0.5,0,0.9-0.3,1.1-0.7l5.8-11.9
		c0.3-0.2,0.6-0.4,0.9-0.7c1.4-1.2,2.2-2.6,2.3-4.2c0-0.5,0-1-0.1-1.5L219.8,64.2z M205.1,71.1c0.1-0.1,0.3-0.1,0.3-0.2
		c0.3-0.3,0.4-0.7,0.4-1c-0.1-0.7-0.1-1.5,0-2c0.7,0.1,2.1,0.5,2.5,1.3c0.3,0.6,0,1.4-0.4,2.1c0,0.1-0.1,0.2-0.2,0.3
		c-0.2,0.4-0.4,0.7-0.7,1c-0.3,0.4-0.5,0.7-0.8,1c-1.6,1.9-3.2,2.9-4.3,2.9c-0.4,0-0.5-0.2-0.6-0.2c-0.1,0-0.1-0.1-0.1-0.1
		c-0.5-0.5-0.7-1.1-0.6-1.4c0.2-0.5,0.9-0.6,1.2-0.6c0.5-0.1,0.9-0.4,1-0.9c0.1-0.3,0.1-0.5,0-0.8c-0.1-0.2-0.2-0.4-0.4-0.5
		c-0.2-0.1-0.3-0.3-0.5-0.3c-1.4-1.1-2.7-2.2-3.2-2.9c0.7-0.6,1.4-1.2,1.9-1.5c0.9,1.2,2.7,3.3,2.9,3.7c0.1,0.1,0.1,0.1,0.2,0.2
		C204.2,71.2,204.7,71.3,205.1,71.1L205.1,71.1z M200.7,78.6C200.7,78.5,200.7,78.5,200.7,78.6c0.4,0.2,0.9,0.3,1.4,0.3
		c2.1,0,4.6-1.7,6.6-4.4c0.4,0.4,1.4,1.6,1.9,3.1c0.2,0.5,0.3,1.1,0.3,1.7c-0.1,0.9-0.5,1.7-1.4,2.5c-0.4,0.3-0.8,0.6-1.3,0.9
		c-0.9,0.5-1.8,0.8-2.5,0.8c-1.6,0-3-1.2-4.2-2.5C200.9,80.3,200.6,79.5,200.7,78.6L200.7,78.6z M210.3,72.6
		c-0.1-0.1-0.2-0.1-0.2-0.2c0,0,0-0.1,0.1-0.1c0.9-1.7,1.1-3.1,0.4-4.4c-1.1-2.1-4-2.5-4.6-2.5c-0.7-0.1-1.4,0.1-1.8,0.6
		c-0.2,0.2-0.3,0.5-0.5,0.8c-0.6-0.8-1.1-1.4-1.3-1.7c-0.3-0.4-0.8-0.7-1.3-0.7c-1.3,0-3.3,1.9-4.4,3c-0.3,0.3-0.4,0.7-0.4,1.1
		c0,0.3,0.1,1.3,3.3,3.9c-0.5,0.4-0.8,0.9-1,1.4c-0.3,0.8-0.2,1.6,0.2,2.4c-0.2,0.7-0.4,1.4-0.4,2.1c-0.1,1.6,0.4,3.1,1.5,4.1
		c1.5,1.5,3.4,3.2,5.9,3.2c0.3,0,0.7,0,1-0.1l-3.4,7L190.5,62c0.4,0.1,0.9,0.1,1.3,0.1c2.5,0,4.4-1.3,5.9-4c0.7,0,1.7-0.3,2.5-5
		c0.4,0.1,0.8,0.2,1.1,0.2c1.7,0,3.1-1.3,3.5-3.3c0.2-1-0.1-2-0.8-2.9c-0.8-0.9-2-1.7-3.5-2.3h0c3.5,0,5.9-0.5,7.8-1
		c1.8-0.4,3.1-0.7,4.4-0.4c1.6,0.3,3.6,1.6,5.4,2.8c2,1.3,4.2,2.7,6.2,3.1l-0.4,0.9c-1-0.5-2.6-1-4.2-1c-1.3,0-2.4,0.4-3.2,1.1
		c-0.2,0.2-0.4,0.3-0.6,0.5c-0.8-0.3-1.7-0.5-2.7-0.5c-2.1,0-4.6,0.7-6.9,2c-1.7,0.9-2.6,2.1-2.7,3.5c-0.2,2.4,2,4.2,2.5,4.6
		c0.4,0.3,0.8,0.5,1.3,0.5c0.5,0,0.9-0.2,1.4-0.5c0.1,1,0.2,1.8,0.2,2.1c0,0.5,0.3,1.2,1.2,1.5c0.3,0.1,0.7,0.2,1.2,0.2
		c1.5,0,3.6-0.4,3.6-0.5c0.4-0.1,0.8-0.4,1-0.7c0.1-0.1,0.2-0.3,0.2-0.6c0.4,0.4,0.9,0.7,1.4,1l-5.5,11.3
		C211.2,73.5,210.4,72.7,210.3,72.6L210.3,72.6z M180.6,43.1c1-6.2,20-7.3,22.2-7.4c0.9,0,1.9-0.1,2.8-0.1c14.7,0,21.4,5.7,22.8,7.1
		c0,0.5-0.1,1.3-0.3,2c-0.2,0.6-0.5,1.3-1.1,1.7c-0.3,0.3-0.7,0.5-1.1,0.6c-0.2,0-0.4,0.1-0.5,0.1h0c-1.6,0-3.8-1.4-5.9-2.8
		c-0.7-0.5-1.5-1-2.2-1.4c-1.3-0.8-2.7-1.4-4-1.7c-0.6-0.1-1.1-0.2-1.7-0.2c-0.7,0-1.3,0.1-2,0.2c-0.6,0.1-1.1,0.2-1.8,0.4
		c-1.9,0.4-4,0.9-7.2,0.9c-1.9,0-4-0.2-6.2-0.5c-0.3,0-0.5-0.1-0.8-0.1c-1.9,0-3.4,1.1-4.9,2.1c-1.5,1-3,2-4.7,2h-0.2
		c-0.5,0-0.9-0.1-1.4-0.3c-0.2-0.1-0.3-0.1-0.5-0.2c-0.2-0.2-0.6-0.6-0.8-1.1C180.6,44,180.6,43.5,180.6,43.1L180.6,43.1z
		 M215.5,53.8c0.2,0.7,0.1,1.3-0.1,1.5c-0.2,0.3-0.5,0.3-0.9,0.2c-0.2,0-0.4-0.1-0.6-0.2c-0.2-0.1-0.4-0.1-0.6-0.1
		c-0.3,0-0.5,0.1-0.8,0.3c-0.4,0.3-0.5,0.9-0.3,1.3c0.7,1.8,1.2,3.8,1.4,4.8c-0.8,0.1-1.8,0.3-2.4,0.3c-0.1-1.5-0.4-4.3-0.5-4.6
		c-0.1-0.5-0.5-1-1-1c-0.5-0.1-1.1,0.2-1.3,0.7c-0.3,0.6-0.8,1.3-1.1,1.6c-0.5-0.5-1.5-1.5-1.4-2.4c0.1-0.7,0.8-1.2,1.4-1.5
		c2-1.1,4.1-1.7,5.8-1.7c0.4,0,0.9,0,1.2,0.1c0.5,0.1,0.9,0.3,1.1,0.6C215.5,53.6,215.5,53.7,215.5,53.8L215.5,53.8z M217.3,56.8
		c0.7-0.9,0.9-2.3,0.5-3.7c-0.1-0.2-0.1-0.3-0.2-0.5c0.1-0.1,0.2-0.2,0.3-0.3c0.4-0.3,0.9-0.5,1.6-0.5c1.1,0,2.3,0.4,3.1,0.8
		c0.3,0.2,0.6,0.3,0.8,0.4l-3.9,8.8c-0.4-0.1-0.7-0.3-1.1-0.5c-0.7-0.4-1.4-1.1-2.3-1.9c-0.4-0.4-0.6-0.9-0.7-1.4
		C216.3,57.7,216.9,57.3,217.3,56.8z M198,50.7l-0.2,1.1c-0.4-0.6-0.8-1.1-1.4-1.6c0.2-0.5,0-1-0.4-1.3c-0.4-0.3-1-0.3-1.4,0
		c0,0,0,0,0,0c-1.1-0.6-2-0.9-2-0.9h0c0-0.4,0.1-0.7,0.2-1c0.3-0.6,1.3-0.7,2-0.7c3.7,0,6.3,1.2,7.2,2.3c0.3,0.3,0.4,0.6,0.3,0.9
		c-0.2,0.9-0.7,1.4-1.1,1.4c-0.3,0-0.7-0.3-1-0.7c-0.3-0.4-0.8-0.6-1.3-0.5C198.5,49.8,198.1,50.2,198,50.7z M189.9,46
		c0.5-0.3,0.9-0.6,1.3-0.9c-0.2,0.2-0.4,0.4-0.5,0.6c-0.5,0.7-0.6,1.5-0.6,2.3c-1.5,0.2-3.5,0.7-4.7,2.1l-0.8-1.9
		C186.8,48.1,188.4,47,189.9,46L189.9,46z M186.7,53.2c0.1-0.3,0.2-0.6,0.3-0.9c0.5-1.3,2.3-1.7,3.6-1.8c0.6-0.1,1-0.1,1.2-0.1h0.2
		c0.2,0.1,0.8,0.3,1.4,0.6c0.4,0.2,0.8,0.5,1.3,0.8c0.3,0.3,0.7,0.6,0.9,0.9c0.2,0.2,0.3,0.5,0.4,0.7c0.3,0.6,0.3,1.2,0.2,1.8
		c-0.1,0.3-0.2,0.6-0.3,0.9c0,0.1-0.1,0.2-0.1,0.3c-0.2,0.4-0.4,0.8-0.6,1.1c-1.2,1.9-2.4,2.2-3.4,2.2c-0.8,0-1.6-0.2-2.5-0.4
		l-0.6-0.2c-0.4-0.1-0.8-0.4-1.1-0.7c-0.2-0.3-0.4-0.6-0.6-0.9c-0.2-0.4-0.3-0.9-0.4-1.5C186.4,55.1,186.5,54.1,186.7,53.2z"/>
	<path id="path34" class="st0" d="M238.6,63.8c-0.1-0.7-0.7-1.1-1.4-1.1l-9.7,1.2c-0.7,0.1-1.1,0.7-1.1,1.4c0.1,0.6,0.6,1.1,1.2,1.1
		h0.2l9.7-1.2C238.2,65.1,238.7,64.6,238.6,63.8C238.6,63.9,238.6,63.9,238.6,63.8z"/>
	<path id="path36" class="st0" d="M222.1,80.3c-0.5-0.5-1.2-0.5-1.7,0c-0.5,0.5-0.5,1.2,0,1.7l5.1,5.3c0.3,0.3,0.6,0.4,0.9,0.4
		s0.6-0.1,0.9-0.3c0.5-0.5,0.5-1.2,0-1.7L222.1,80.3L222.1,80.3z"/>
	<path id="path38" class="st0" d="M216.9,87.7c-0.3-0.6-1.1-0.8-1.7-0.4c-0.6,0.3-0.8,1.1-0.4,1.7l4.4,7c0.2,0.4,0.6,0.6,1,0.6
		c0.2,0,0.4-0.1,0.6-0.2c0.6-0.3,0.8-1.1,0.4-1.7L216.9,87.7z"/>
	<path id="path40" class="st0" d="M230.9,75.6l-5.2-2.2c-0.6-0.3-1.3,0-1.6,0.6c-0.3,0.6,0,1.3,0.6,1.6l5.2,2.2
		c0.2,0.1,0.3,0.1,0.5,0.1c0.5,0,0.9-0.3,1.1-0.8C231.8,76.6,231.5,75.8,230.9,75.6z"/>
	<path id="path42" class="st0" d="M185.7,83.1l-6.5,7.2c-0.4,0.5-0.4,1.3,0.1,1.7c0.2,0.2,0.5,0.3,0.8,0.3c0.3,0,0.7-0.1,0.9-0.4
		l6.5-7.2c0.4-0.5,0.4-1.3-0.1-1.7C186.9,82.6,186.2,82.6,185.7,83.1L185.7,83.1z"/>
	<path id="path44" class="st0" d="M178.7,69.7c0.7,0,1.2-0.5,1.2-1.2c0,0,0,0,0,0c0-0.7-0.5-1.2-1.2-1.2l-7.3-0.1
		c-0.7,0-1.2,0.5-1.2,1.2c0,0,0,0,0,0c0,0.7,0.5,1.2,1.2,1.2L178.7,69.7L178.7,69.7z"/>
	<path id="path46" class="st0" d="M172,58.5l6,1.8c0.1,0,0.2,0.1,0.3,0.1c0.5,0,1-0.3,1.2-0.8c0.2-0.6-0.2-1.3-0.8-1.5l-6-1.9
		c-0.6-0.2-1.3,0.2-1.5,0.8C171,57.7,171.4,58.3,172,58.5L172,58.5z"/>
	<path id="path48" class="st0" d="M183,75c-0.2-0.6-1-0.9-1.6-0.7c0,0,0,0,0,0l-6.7,2.8c-0.6,0.2-0.9,1-0.7,1.6c0,0,0,0,0,0
		c0.2,0.5,0.6,0.8,1.1,0.8c0.2,0,0.3,0,0.5-0.1l6.7-2.8C182.9,76.4,183.2,75.6,183,75z"/>
</g>
<path id="path52" class="st0" d="M121.8,92c0,1.8-0.3,3.4-1,4.9c-0.7,1.4-1.7,2.7-2.9,3.7c-1.3,1-2.8,1.8-4.5,2.3
	c-1.8,0.5-3.7,0.8-5.8,0.8c-0.3,0-0.5-0.1-0.7-0.2c-0.2-0.1-0.3-0.4-0.3-0.6c0-0.2,0.1-0.4,0.2-0.6c0.2-0.2,0.4-0.2,0.6-0.2
	c1.9,0,3.6-0.2,5.2-0.7c1.6-0.4,2.9-1.1,4-1.9c1.1-0.8,2-1.9,2.6-3.1c0.6-1.2,0.9-2.6,0.9-4.2c0-1.6-0.4-3.1-1.1-4.3
	c-0.7-1.3-1.7-2.3-3-3.2c-1.3-0.9-2.8-1.5-4.6-2c-1.8-0.4-3.7-0.7-5.9-0.7c-2,0-4,0.2-5.8,0.5c-1.9,0.3-3.7,0.8-5.3,1.4
	c-1.7,0.6-3.2,1.3-4.5,2.2c-1.4,0.8-2.5,1.8-3.5,2.8s-1.7,2.1-2.3,3.2c-0.5,1.1-0.8,2.3-0.8,3.6c0,1.1,0.2,2,0.6,2.8
	c0.4,0.8,0.9,1.5,1.5,2c0.6,0.5,1.3,1,2.2,1.2c0.8,0.3,1.7,0.4,2.5,0.4c1.1,0,2-0.1,2.8-0.3c0.8-0.2,1.5-0.5,2.1-0.7
	c0.6-0.3,1-0.5,1.3-0.8c0.3-0.2,0.5-0.4,0.5-0.4c0.2-0.2,0.4-0.2,0.6-0.2c0.2,0,0.4,0.1,0.6,0.3c0.2,0.2,0.3,0.4,0.3,0.6
	c0,0.3-0.1,0.5-0.3,0.6c0,0-0.2,0.2-0.6,0.5c-0.4,0.3-0.9,0.6-1.5,0.9c-0.7,0.3-1.5,0.6-2.4,0.9c-1,0.3-2.1,0.4-3.3,0.4
	c-1.1,0-2.2-0.2-3.2-0.6c-1-0.4-1.9-0.9-2.7-1.6c-0.8-0.7-1.4-1.6-1.9-2.6c-0.5-1-0.7-2.2-0.7-3.4c0-1.4,0.3-2.7,0.9-4
	c0.6-1.3,1.4-2.5,2.4-3.7c1-1.1,2.3-2.2,3.8-3.1c1.5-0.9,3.1-1.7,4.8-2.4c1.8-0.7,3.7-1.2,5.7-1.6s4.1-0.6,6.3-0.6
	c2.4,0,4.6,0.3,6.6,0.8c2,0.5,3.7,1.3,5.1,2.3c1.4,1,2.6,2.3,3.4,3.7C121.4,88.4,121.8,90.1,121.8,92L121.8,92z M108.4,86.6
	c0.2,0,0.4,0.1,0.6,0.2c0.2,0.2,0.3,0.4,0.3,0.6c0,0.2,0,0.3-0.1,0.4c-0.1,0.1-0.2,0.2-0.3,0.3c-0.8,0.7-1.5,1.4-2,2.1
	c-0.5,0.8-0.9,1.6-1.1,2.5c-0.3,0.9-0.4,1.8-0.5,2.8c-0.1,1-0.1,2-0.1,3.1v2.8c0,1.9-0.2,3.6-0.5,5.3c-0.3,1.7-0.9,3.1-1.7,4.4
	c-0.8,1.3-1.8,2.3-3.2,3c-1.3,0.7-3,1.1-5,1.1c-0.9,0-1.8-0.1-2.6-0.3c-0.9-0.2-1.7-0.5-2.4-0.9c-0.8-0.4-1.5-0.9-2.1-1.5
	c-0.6-0.6-1.2-1.3-1.7-2c0-0.1-0.1-0.1-0.1-0.2c0-0.1,0-0.2,0-0.2c0-0.2,0.1-0.4,0.2-0.6c0.2-0.2,0.4-0.3,0.6-0.3
	c0.1,0,0.3,0,0.4,0.1c0.1,0.1,0.2,0.2,0.3,0.3c1,1.3,2,2.3,3.3,3c1.2,0.7,2.6,1,4.1,1c1.8,0,3.2-0.3,4.3-1c1.1-0.7,2-1.5,2.6-2.7
	c0.6-1.1,1.1-2.5,1.3-4c0.2-1.5,0.3-3.1,0.3-4.8v-2.9c0-1,0-2,0.1-3.1c0.1-1.1,0.3-2.1,0.6-3.2c0.3-1,0.8-2,1.4-2.9
	c0.6-0.9,1.4-1.7,2.5-2.4c0.1,0,0.1-0.1,0.2-0.1C108.3,86.6,108.4,86.6,108.4,86.6L108.4,86.6z M127,96.5c0,0.6-0.2,1.1-0.6,1.5
	c-0.4,0.4-0.9,0.6-1.5,0.6c-0.6,0-1.1-0.2-1.5-0.6c-0.4-0.4-0.6-0.9-0.6-1.5c0-0.3,0.1-0.6,0.2-0.8c0.1-0.2,0.3-0.5,0.4-0.7
	c0.2-0.2,0.4-0.3,0.7-0.4c0.2-0.1,0.5-0.2,0.8-0.2s0.6,0.1,0.8,0.2c0.2,0.1,0.5,0.3,0.7,0.4c0.2,0.2,0.3,0.4,0.4,0.7
	C127,96,127,96.2,127,96.5L127,96.5z M123.4,109.7c0-2.2,0.1-4.3,0.4-6.5c0-0.2,0.1-0.4,0.3-0.6c0.2-0.2,0.4-0.2,0.6-0.2
	c0.2,0,0.4,0.1,0.6,0.3c0.2,0.2,0.2,0.4,0.2,0.6c0,0.1,0,0.4-0.1,0.8c0,0.5-0.1,1-0.1,1.6c-0.1,0.6-0.1,1.3-0.1,2
	c0,0.7-0.1,1.3-0.1,1.9c0,0.8,0.1,1.4,0.2,1.9c0.2,0.5,0.4,0.9,0.6,1.1c0.2,0.3,0.5,0.5,0.8,0.5c0.3,0.1,0.5,0.1,0.8,0.1
	c0.4,0,0.9-0.1,1.3-0.4c0.5-0.3,0.9-0.7,1.4-1.3c0.5-0.5,1-1.2,1.4-1.9c0.5-0.8,1-1.6,1.4-2.5c0.1-0.1,0.2-0.3,0.3-0.3
	c0.1-0.1,0.3-0.1,0.5-0.1c0.2,0,0.4,0.1,0.6,0.3c0.2,0.2,0.2,0.4,0.2,0.6c0,0.2,0,0.3-0.1,0.4c-0.2,0.3-0.4,0.8-0.7,1.3
	c-0.3,0.5-0.6,1-0.9,1.5c-0.3,0.5-0.7,1-1.1,1.6c-0.4,0.5-0.9,1-1.3,1.4c-0.5,0.4-1,0.7-1.5,1c-0.5,0.3-1,0.4-1.6,0.4
	c-0.7,0-1.3-0.1-1.8-0.4c-0.5-0.3-0.9-0.7-1.3-1.1c-0.4-0.5-0.6-1.1-0.8-1.7C123.5,111.2,123.4,110.5,123.4,109.7L123.4,109.7z
	 M125.8,96.5c0-0.2-0.1-0.4-0.2-0.6c-0.2-0.2-0.3-0.2-0.6-0.2c-0.2,0-0.4,0.1-0.5,0.2c-0.2,0.2-0.2,0.3-0.2,0.6
	c0,0.2,0.1,0.4,0.2,0.5c0.2,0.2,0.3,0.2,0.5,0.2c0.2,0,0.4-0.1,0.6-0.2C125.7,96.9,125.8,96.7,125.8,96.5z M143.6,117.6
	c0.1,1.2,0.1,2.7,0.1,4.4c0,1.8-0.1,3.5-0.3,5c-0.2,1.5-0.6,2.8-1,3.9c-0.4,1.1-1,2-1.6,2.6c-0.6,0.6-1.4,0.9-2.2,0.9
	c-0.4,0-0.8-0.1-1.2-0.3c-0.4-0.2-0.7-0.5-1-0.8c-0.3-0.4-0.5-0.8-0.7-1.3c-0.2-0.5-0.2-1.1-0.2-1.7c0-0.9,0.1-1.9,0.3-2.9
	c0.2-1,0.6-2.1,1.1-3.2c0.5-1.1,1.1-2.3,2-3.5c0.8-1.2,1.8-2.5,3-3.8c-0.1-0.6-0.1-1.2-0.2-1.8c-0.1-0.6-0.2-1-0.4-1.4
	c-0.2-0.4-0.3-0.7-0.5-0.9c-0.2-0.2-0.4-0.3-0.7-0.3c-0.1,0-0.2,0-0.3,0c-0.3,0.4-0.7,0.7-0.9,0.9c-0.3,0.2-0.5,0.4-0.8,0.5
	c-0.2,0.1-0.4,0.2-0.6,0.2c-0.2,0-0.3,0-0.3,0c-0.3,0-0.5-0.1-0.7-0.2c-0.2-0.1-0.4-0.4-0.4-0.8c0-0.1,0-0.3,0.1-0.5
	c0.1-0.2,0.3-0.4,0.5-0.7c0.2-0.2,0.5-0.5,0.9-0.7c0.4-0.2,0.8-0.4,1.3-0.5c1-1.1,1.8-2,2.3-2.9c0.6-0.9,0.8-1.7,0.8-2.5
	c0-0.7-0.2-1.2-0.6-1.6c-0.4-0.4-1-0.6-1.6-0.6c-0.9,0-1.8,0.4-2.7,1.3c-0.9,0.8-1.7,2-2.4,3.5c-0.2,0.3-0.4,0.5-0.8,0.5
	c-0.3,0-0.5-0.1-0.6-0.3c-0.2-0.2-0.2-0.4-0.2-0.6c0-0.1,0-0.3,0.1-0.4c0.9-1.8,1.9-3.2,3.1-4.2c1.2-1,2.4-1.5,3.6-1.5
	c0.5,0,1,0.1,1.5,0.3c0.5,0.2,0.9,0.4,1.3,0.8c0.4,0.3,0.6,0.8,0.9,1.2c0.2,0.5,0.3,1,0.3,1.7c0,0.5-0.1,1-0.2,1.5
	c-0.1,0.5-0.3,1-0.6,1.4c-0.2,0.5-0.5,0.9-0.8,1.3c-0.3,0.4-0.6,0.8-1,1.2c0.4,0.2,0.7,0.4,1,0.8c0.3,0.3,0.5,0.7,0.7,1.1
	c0.2,0.4,0.3,0.8,0.4,1.3c0.1,0.4,0.2,0.9,0.2,1.3c0.6-0.6,1.2-1.3,1.8-2c0.6-0.7,1.2-1.4,1.8-2.1c0.6-0.7,1.1-1.4,1.6-2.1
	c0.5-0.7,0.8-1.3,1.1-1.9c0.1-0.2,0.2-0.3,0.3-0.4c0.1-0.1,0.3-0.1,0.4-0.1c0.3,0,0.5,0.1,0.6,0.3c0.2,0.2,0.2,0.4,0.2,0.6
	c0,0.1,0,0.2-0.1,0.3c-0.3,0.8-0.8,1.6-1.4,2.4c-0.6,0.9-1.3,1.7-2,2.6c-0.7,0.9-1.4,1.7-2.2,2.5
	C144.9,116.2,144.2,116.9,143.6,117.6L143.6,117.6z M142,119.4c-0.9,1.2-1.7,2.2-2.3,3.3c-0.6,1-1.1,2-1.5,2.9
	c-0.4,0.9-0.6,1.7-0.8,2.5c-0.2,0.8-0.2,1.5-0.2,2.1c0,0.8,0.1,1.4,0.4,1.9c0.3,0.5,0.6,0.7,1,0.7c0.5,0,1-0.3,1.4-0.8
	c0.4-0.5,0.8-1.3,1.1-2.2c0.3-0.9,0.5-2,0.7-3.3c0.2-1.3,0.2-2.7,0.2-4.1c0-0.4,0-0.8,0-1.3C142.1,120.4,142,119.9,142,119.4
	L142,119.4z M160.2,117.6c0.1,1.2,0.1,2.7,0.1,4.4c0,1.8-0.1,3.5-0.3,5c-0.2,1.5-0.6,2.8-1,3.9c-0.4,1.1-1,2-1.6,2.6
	c-0.6,0.6-1.4,0.9-2.2,0.9c-0.4,0-0.8-0.1-1.2-0.3c-0.4-0.2-0.7-0.5-1-0.8c-0.3-0.4-0.5-0.8-0.7-1.3c-0.2-0.5-0.2-1.1-0.2-1.7
	c0-0.9,0.1-1.9,0.3-2.9c0.2-1,0.6-2.1,1.1-3.2c0.5-1.1,1.1-2.3,2-3.5c0.8-1.2,1.8-2.5,3-3.8c-0.1-0.6-0.1-1.2-0.2-1.8
	c-0.1-0.6-0.2-1-0.4-1.4c-0.2-0.4-0.3-0.7-0.5-0.9c-0.2-0.2-0.4-0.3-0.7-0.3c-0.1,0-0.2,0-0.3,0c-0.3,0.4-0.7,0.7-0.9,0.9
	c-0.3,0.2-0.5,0.4-0.8,0.5c-0.2,0.1-0.4,0.2-0.6,0.2c-0.2,0-0.3,0-0.3,0c-0.3,0-0.5-0.1-0.7-0.2c-0.2-0.1-0.4-0.4-0.4-0.8
	c0-0.1,0-0.3,0.1-0.5c0.1-0.2,0.3-0.4,0.5-0.7c0.2-0.2,0.5-0.5,0.9-0.7c0.4-0.2,0.8-0.4,1.3-0.5c1-1.1,1.8-2,2.3-2.9
	c0.6-0.9,0.8-1.7,0.8-2.5c0-0.7-0.2-1.2-0.6-1.6c-0.4-0.4-1-0.6-1.6-0.6c-0.9,0-1.8,0.4-2.7,1.3c-0.9,0.8-1.7,2-2.4,3.5
	c-0.2,0.3-0.4,0.5-0.8,0.5c-0.3,0-0.5-0.1-0.6-0.3c-0.2-0.2-0.2-0.4-0.2-0.6c0-0.1,0-0.3,0.1-0.4c0.9-1.8,1.9-3.2,3.1-4.2
	c1.2-1,2.4-1.5,3.6-1.5c0.5,0,1,0.1,1.5,0.3c0.5,0.2,0.9,0.4,1.3,0.8c0.4,0.3,0.6,0.8,0.9,1.2c0.2,0.5,0.3,1,0.3,1.7
	c0,0.5-0.1,1-0.2,1.5c-0.1,0.5-0.3,1-0.6,1.4c-0.2,0.5-0.5,0.9-0.8,1.3c-0.3,0.4-0.6,0.8-1,1.2c0.4,0.2,0.7,0.4,1,0.8
	c0.3,0.3,0.5,0.7,0.7,1.1c0.2,0.4,0.3,0.8,0.4,1.3c0.1,0.4,0.2,0.9,0.2,1.3c0.6-0.6,1.2-1.3,1.8-2c0.6-0.7,1.2-1.4,1.8-2.1
	c0.6-0.7,1.1-1.4,1.6-2.1c0.5-0.7,0.8-1.3,1.1-1.9c0.1-0.2,0.2-0.3,0.3-0.4c0.1-0.1,0.3-0.1,0.4-0.1c0.3,0,0.5,0.1,0.6,0.3
	c0.2,0.2,0.2,0.4,0.2,0.6c0,0.1,0,0.2-0.1,0.3c-0.3,0.8-0.8,1.6-1.4,2.4c-0.6,0.9-1.3,1.7-2,2.6c-0.7,0.9-1.4,1.7-2.2,2.5
	C161.5,116.2,160.8,116.9,160.2,117.6L160.2,117.6z M158.6,119.4c-0.9,1.2-1.7,2.2-2.3,3.3c-0.6,1-1.1,2-1.5,2.9
	c-0.4,0.9-0.6,1.7-0.8,2.5c-0.2,0.8-0.2,1.5-0.2,2.1c0,0.8,0.1,1.4,0.4,1.9c0.3,0.5,0.6,0.7,1,0.7c0.5,0,1-0.3,1.4-0.8
	c0.4-0.5,0.8-1.3,1.1-2.2c0.3-0.9,0.5-2,0.7-3.3c0.2-1.3,0.2-2.7,0.2-4.1c0-0.4,0-0.8,0-1.3C158.6,120.4,158.6,119.9,158.6,119.4
	L158.6,119.4z M168.9,111.7c0.3,0.4,0.7,0.8,1.2,1c0.5,0.3,1.1,0.4,1.8,0.4c0.7,0,1.4-0.2,2-0.5c0.6-0.4,1.2-0.8,1.6-1.4
	c0.5-0.6,0.9-1.2,1.3-1.9c0.4-0.7,0.7-1.4,1.1-2.1c0.1-0.2,0.2-0.3,0.3-0.4c0.1-0.1,0.3-0.1,0.4-0.1c0.3,0,0.5,0.1,0.6,0.3
	c0.2,0.2,0.2,0.4,0.2,0.6c0,0.1,0,0.1,0,0.2c0,0.1,0,0.1-0.1,0.2c-1,2.3-2.2,4-3.4,5.2c-1.2,1.2-2.6,1.7-4.2,1.8
	c-1,0-1.9-0.2-2.6-0.6c-0.7-0.4-1.3-0.9-1.8-1.5c-0.5-0.6-0.8-1.3-1-2.1c-0.2-0.8-0.3-1.5-0.3-2.3c0-0.8,0.1-1.5,0.3-2.1
	c0.2-0.6,0.5-1.2,0.8-1.7c0.4-0.5,0.8-0.9,1.3-1.1c0.5-0.3,1-0.4,1.6-0.4c0.3,0,0.7,0.1,1,0.2c0.3,0.1,0.6,0.3,0.9,0.6
	c0.3,0.3,0.5,0.6,0.7,1c0.2,0.4,0.2,0.8,0.2,1.3c0,0.6-0.1,1.2-0.3,1.7c-0.2,0.5-0.5,1-0.9,1.5c-0.4,0.5-0.8,0.9-1.3,1.3
	C170,111.1,169.5,111.4,168.9,111.7L168.9,111.7z M168.2,110.3c0.5-0.2,0.9-0.4,1.3-0.7c0.4-0.3,0.7-0.6,1-1
	c0.3-0.4,0.5-0.7,0.6-1.1c0.2-0.4,0.2-0.8,0.2-1.2c0-0.5-0.1-0.8-0.3-1c-0.2-0.2-0.5-0.4-0.8-0.4c-0.4,0-0.8,0.1-1,0.3
	c-0.3,0.2-0.5,0.5-0.7,0.9c-0.2,0.4-0.3,0.8-0.4,1.2c-0.1,0.4-0.1,0.9-0.1,1.3c0,0.3,0,0.6,0.1,0.9
	C168.1,109.7,168.1,110,168.2,110.3L168.2,110.3z M180.3,104.9c-0.1,0.4-0.1,0.8-0.2,1.1c-0.1,0.4-0.2,0.7-0.3,0.9
	c-0.1,0.3-0.2,0.5-0.2,0.6c-0.1,0.2-0.1,0.3-0.1,0.3c-0.1,0.3-0.4,0.5-0.8,0.5c-0.2,0-0.4-0.1-0.6-0.2c-0.2-0.2-0.3-0.4-0.3-0.6
	c0-0.1,0-0.2,0-0.2c0,0,0.1-0.1,0.1-0.3c0.1-0.1,0.1-0.4,0.2-0.7c0.1-0.3,0.2-0.8,0.3-1.5c-0.3,0-0.5,0-0.8,0
	c-0.3,0-0.5-0.1-0.8-0.2c-0.2-0.1-0.4-0.2-0.6-0.4c-0.2-0.2-0.2-0.5-0.2-0.8c0-0.3,0.1-0.6,0.2-1c0.1-0.4,0.3-0.9,0.6-1.3
	c0.2-0.4,0.5-0.8,0.8-1.1c0.3-0.3,0.6-0.5,0.9-0.5c0.3,0,0.6,0.1,0.8,0.4c0.2,0.3,0.4,0.6,0.5,0.9c0.1,0.4,0.2,0.8,0.3,1.2
	c0.1,0.4,0.1,0.8,0.1,1.1c0.3,0,0.5,0,0.8,0c0.2,0,0.5,0,0.7,0c0.9,0,1.5,0.2,2,0.6c0.4,0.4,0.7,1,0.7,1.9c0,0.3,0,0.7-0.1,1.1
	c0,0.4-0.1,0.8-0.2,1.2c-0.1,0.4-0.1,0.8-0.2,1.2c0,0.4-0.1,0.8-0.1,1.1c0,0.5,0.1,1,0.2,1.3c0.2,0.4,0.3,0.6,0.6,0.8
	c0.2,0.2,0.5,0.4,0.7,0.4c0.3,0.1,0.5,0.1,0.7,0.1c0.6,0,1.3-0.2,1.8-0.6c0.6-0.4,1.1-0.9,1.6-1.5c0.5-0.6,0.9-1.2,1.3-1.9
	c0.4-0.7,0.7-1.2,1-1.7c0.1-0.1,0.2-0.2,0.3-0.3c0.1-0.1,0.3-0.1,0.4-0.1c0.3,0,0.5,0.1,0.6,0.3c0.1,0.2,0.2,0.4,0.2,0.6
	c0,0.2,0,0.3-0.1,0.4c-0.3,0.6-0.7,1.3-1.2,2.1s-1,1.5-1.6,2.2c-0.6,0.7-1.2,1.2-2,1.7c-0.7,0.5-1.5,0.7-2.4,0.7
	c-0.5,0-1.1-0.1-1.5-0.3c-0.5-0.2-0.9-0.5-1.3-0.9c-0.4-0.4-0.6-0.9-0.8-1.4c-0.2-0.6-0.3-1.2-0.3-1.9c0-0.8,0.1-1.5,0.2-2.2
	c0.2-0.7,0.2-1.5,0.2-2.1c0-0.3-0.1-0.5-0.2-0.6c-0.1-0.1-0.4-0.2-0.8-0.2h-0.7C180.9,104.9,180.6,104.9,180.3,104.9L180.3,104.9z
	 M177.8,103.3h1c0-0.1,0-0.2,0-0.4c0-0.2,0-0.3,0-0.5c0-0.2-0.1-0.3-0.1-0.4c0-0.1-0.1-0.2-0.1-0.2c0,0-0.1,0.1-0.2,0.2
	c-0.1,0.1-0.1,0.2-0.2,0.4c-0.1,0.2-0.1,0.3-0.2,0.5C177.9,103,177.9,103.2,177.8,103.3L177.8,103.3z M195.6,96.5
	c0,0.6-0.2,1.1-0.6,1.5c-0.4,0.4-0.9,0.6-1.5,0.6c-0.6,0-1.1-0.2-1.5-0.6c-0.4-0.4-0.6-0.9-0.6-1.5c0-0.3,0.1-0.6,0.2-0.8
	c0.1-0.2,0.3-0.5,0.4-0.7c0.2-0.2,0.4-0.3,0.7-0.4c0.2-0.1,0.5-0.2,0.8-0.2c0.3,0,0.6,0.1,0.8,0.2c0.2,0.1,0.5,0.3,0.7,0.4
	c0.2,0.2,0.3,0.4,0.4,0.7C195.6,96,195.6,96.2,195.6,96.5z M192,109.7c0-2.2,0.1-4.3,0.4-6.5c0-0.2,0.1-0.4,0.3-0.6
	c0.2-0.2,0.4-0.2,0.6-0.2c0.2,0,0.4,0.1,0.6,0.3c0.2,0.2,0.2,0.4,0.2,0.6c0,0.1,0,0.4-0.1,0.8c0,0.5-0.1,1-0.1,1.6
	c-0.1,0.6-0.1,1.3-0.1,2c0,0.7-0.1,1.3-0.1,1.9c0,0.8,0.1,1.4,0.2,1.9c0.2,0.5,0.4,0.9,0.6,1.1c0.2,0.3,0.5,0.5,0.8,0.5
	c0.3,0.1,0.5,0.1,0.8,0.1c0.4,0,0.9-0.1,1.3-0.4c0.5-0.3,0.9-0.7,1.4-1.3c0.5-0.5,1-1.2,1.4-1.9c0.5-0.8,1-1.6,1.4-2.5
	c0.1-0.1,0.2-0.3,0.3-0.3c0.1-0.1,0.3-0.1,0.5-0.1c0.2,0,0.4,0.1,0.6,0.3c0.2,0.2,0.2,0.4,0.2,0.6c0,0.2,0,0.3-0.1,0.4
	c-0.2,0.3-0.4,0.8-0.7,1.3c-0.3,0.5-0.6,1-0.9,1.5c-0.3,0.5-0.7,1-1.1,1.6c-0.4,0.5-0.9,1-1.3,1.4c-0.5,0.4-1,0.7-1.5,1
	s-1,0.4-1.6,0.4c-0.7,0-1.3-0.1-1.8-0.4c-0.5-0.3-0.9-0.7-1.3-1.1c-0.4-0.5-0.6-1.1-0.8-1.7C192.1,111.2,192,110.5,192,109.7
	L192,109.7z M194.4,96.5c0-0.2-0.1-0.4-0.2-0.6c-0.2-0.2-0.3-0.2-0.6-0.2c-0.2,0-0.4,0.1-0.5,0.2c-0.2,0.2-0.2,0.3-0.2,0.6
	c0,0.2,0.1,0.4,0.2,0.5c0.2,0.2,0.3,0.2,0.5,0.2c0.2,0,0.4-0.1,0.6-0.2C194.3,96.9,194.4,96.7,194.4,96.5z M219.1,107.9
	c-0.1,0.1-0.2,0.4-0.4,0.8c-0.2,0.4-0.4,0.8-0.7,1.3c-0.3,0.5-0.6,1-1,1.6c-0.4,0.5-0.8,1-1.3,1.5c-0.5,0.5-1,0.8-1.6,1.1
	s-1.1,0.4-1.8,0.4c-0.9,0-1.6-0.3-2.2-0.8c-0.6-0.6-1-1.3-1.3-2.1c-0.5,0.9-1.1,1.5-1.8,2c-0.7,0.5-1.4,0.8-2.1,0.8
	c-0.6,0-1.1-0.1-1.5-0.3c-0.5-0.2-0.8-0.5-1.1-0.9c-0.3-0.4-0.6-0.8-0.7-1.3c-0.2-0.5-0.3-1-0.3-1.6c0-1.2,0.2-2.2,0.6-3.1
	c0.4-0.9,0.9-1.6,1.5-2.2c0.6-0.6,1.3-1.1,2-1.4c0.7-0.3,1.5-0.5,2.2-0.5c0.5,0,0.9,0.1,1.3,0.2c0.4,0.1,0.7,0.3,1,0.4
	c0.3,0.2,0.5,0.3,0.6,0.4c0.1,0.1,0.2,0.2,0.2,0.2c0.2,0.2,0.2,0.4,0.2,0.6c0,0.2-0.1,0.4-0.2,0.6c-0.2,0.2-0.4,0.3-0.6,0.3
	c-0.2,0-0.4-0.1-0.6-0.2c0,0-0.1-0.1-0.2-0.2c-0.1-0.1-0.3-0.2-0.4-0.3c-0.2-0.1-0.4-0.2-0.6-0.2c-0.2-0.1-0.5-0.1-0.8-0.1
	c-0.5,0-1,0.1-1.5,0.3c-0.5,0.2-1,0.5-1.4,1c-0.4,0.4-0.8,1-1.1,1.7c-0.3,0.7-0.4,1.5-0.4,2.4c0,0.3,0,0.6,0.1,0.9
	c0.1,0.3,0.2,0.6,0.3,0.8c0.1,0.2,0.3,0.4,0.6,0.6c0.3,0.2,0.6,0.2,1,0.2c0.3,0,0.6-0.1,0.9-0.3c0.4-0.2,0.7-0.5,1-0.8
	c0.3-0.4,0.6-0.8,0.9-1.4c0.3-0.6,0.4-1.2,0.6-2c0-0.2,0.1-0.4,0.3-0.5c0.2-0.1,0.4-0.2,0.6-0.2c0.2,0,0.4,0.1,0.6,0.2
	c0.2,0.2,0.2,0.4,0.3,0.6c0,0.3,0,0.7,0.1,1.2c0,0.5,0.1,1,0.3,1.5c0.2,0.5,0.4,1,0.7,1.3c0.3,0.4,0.8,0.6,1.3,0.6
	c0.4,0,0.7-0.1,1.1-0.3c0.4-0.2,0.7-0.5,1-0.8c0.3-0.3,0.7-0.7,1-1.1c0.3-0.4,0.6-0.8,0.8-1.3c0.3-0.4,0.5-0.8,0.7-1.2
	c0.2-0.4,0.4-0.7,0.5-1c0.1-0.2,0.2-0.3,0.3-0.4c0.1-0.1,0.3-0.1,0.5-0.1c0.3,0,0.5,0.1,0.6,0.3c0.2,0.2,0.2,0.4,0.2,0.6
	C219.2,107.7,219.1,107.8,219.1,107.9L219.1,107.9z"/>
<path id="path54" class="st0" d="M114.4,135.1c0.2,0.3,0.3,0.6,0.4,1c0.1,0.4,0.2,0.8,0.2,1.3c0,0.5-0.1,1-0.3,1.4
	c-0.2,0.5-0.4,0.9-0.7,1.2c-0.3,0.3-0.7,0.6-1.1,0.9c-0.8,0.5-1.7,0.8-2.7,1l0.6,0.8c0.2,0.2,0.4,0.5,0.6,0.9
	c0.3,0.4,0.5,0.7,0.6,0.9c0.2,0.2,0.4,0.5,0.6,0.8c0.2,0.3,0.5,0.6,0.7,0.8c0.5,0.5,0.9,1,1.4,1.3c0.5,0.4,1.2,0.5,2.3,0.5
	c0.1,0.1,0.2,0.3,0.2,0.5c0,0.6-0.6,0.9-1.9,0.9s-2.2-0.2-2.9-0.6h0c-1-0.8-2.2-2.5-3.5-4.9l-1-1.8h-3.2v5.2c0,0.1,0.2,0.3,0.5,0.4
	c0.3,0.1,0.6,0.2,1,0.3c0.3,0.1,0.5,0.2,0.5,0.3c0,0.3-0.1,0.5-0.2,0.6c-0.1,0.2-0.3,0.3-0.7,0.3c-0.4,0.1-0.9,0.1-1.6,0.1
	c-0.6,0-1.1,0-1.3,0c-0.2,0-0.5,0-0.7,0c-0.2,0-0.4,0-0.7,0c-0.2,0-0.4,0-0.6-0.1c-0.2,0-0.3-0.1-0.5-0.2c-0.3-0.1-0.4-0.3-0.4-0.6
	c0-0.2,0.1-0.4,0.3-0.5c0.2-0.1,0.4-0.1,0.7-0.1c0.6,0,1-0.2,1-0.5v-12.3c0-0.2-0.2-0.3-0.5-0.4c-0.3-0.1-0.6-0.1-1-0.2
	c-0.3-0.1-0.5-0.2-0.5-0.3c0-0.2,0.1-0.3,0.2-0.4c0.1-0.1,0.3-0.2,0.5-0.3c0.2-0.1,0.4-0.1,0.6-0.2c0.2,0,0.5-0.1,0.8-0.1
	c0.5,0,1,0,1.6,0h2c2,0,3.3,0.1,4,0.2c0.7,0.1,1.2,0.2,1.7,0.3c0.4,0.1,0.8,0.2,1.1,0.4c0.3,0.1,0.6,0.3,0.9,0.5
	S114.2,134.9,114.4,135.1L114.4,135.1z M112.4,137.8c0-0.5-0.1-1-0.3-1.4c-0.2-0.4-0.5-0.8-0.8-1c-0.3-0.2-0.8-0.4-1.3-0.6
	c-0.8-0.3-1.8-0.4-2.8-0.4s-1.7,0.1-2,0.3c-0.3,0.2-0.4,0.7-0.4,1.3v4.6h3.1C110.9,140.6,112.4,139.7,112.4,137.8z M126,141.9
	c-0.3,0-0.6-0.1-1-0.3c-0.4-0.2-0.5-0.5-0.5-0.9c0-0.4,0.1-0.7,0.3-1c0.2-0.3,0.5-0.6,0.8-0.8c0.3-0.2,0.7-0.4,1.2-0.5
	c0.8-0.3,1.7-0.4,2.6-0.4c1.6,0,2.7,0.3,3.4,1c0.7,0.7,1.1,1.8,1.1,3.4l0,3.4c0,0.8,0.1,1.3,0.3,1.5c0.1,0.1,0.2,0.1,0.5,0.2
	c0.8,0.2,1.2,0.4,1.2,0.6c0,0.8-0.8,1.2-2.5,1.2c-0.6,0-1-0.1-1.2-0.4s-0.3-0.8-0.3-1.5c-0.3,0.6-0.9,1.1-1.6,1.5
	c-0.7,0.4-1.5,0.6-2.3,0.6c-0.8,0-1.5-0.1-2.1-0.3c-0.6-0.2-1-0.5-1.4-1c-0.4-0.5-0.5-1-0.5-1.5c0-0.5,0.1-1,0.2-1.3
	c0.1-0.3,0.3-0.6,0.5-0.8c0.2-0.2,0.4-0.4,0.8-0.6c0.3-0.2,0.6-0.3,0.9-0.4c0.3-0.1,0.6-0.2,1.1-0.3c0.6-0.1,1.2-0.2,1.6-0.3
	c0.4-0.1,0.7-0.1,0.7-0.1c0,0,0.3,0,0.8-0.1c0.5-0.1,0.9-0.2,1.1-0.3c0-1.5-0.2-2.4-0.6-2.9c-0.3-0.4-0.9-0.6-1.7-0.6
	c-0.8,0-1.4,0.2-1.8,0.6c-0.4,0.4-0.6,1-0.6,1.9l0,0.3C126.6,141.8,126.3,141.9,126,141.9L126,141.9z M131.6,143.5
	c-0.5,0.2-1.1,0.3-1.8,0.4c-0.7,0.1-1.2,0.2-1.6,0.3c-0.4,0.1-0.7,0.2-0.9,0.4c-0.6,0.3-0.9,0.9-0.9,1.7c0,1.3,0.8,2,2.3,2
	c1.3,0,2.2-0.6,2.5-1.9C131.5,145.6,131.6,144.7,131.6,143.5L131.6,143.5z M143.7,148.9c-0.1-0.1-0.2-0.2-0.3-0.3
	c-0.1-0.1-0.1-0.3-0.1-0.4c0-0.2,0.1-0.3,0.2-0.4c0.2-0.1,0.3-0.1,0.5-0.1c0.2,0,0.4-0.1,0.5-0.2c0.2-0.1,0.2-0.3,0.2-0.5v-7.4H144
	c-0.2,0-0.4-0.1-0.5-0.2c-0.1-0.1-0.2-0.3-0.2-0.6c0-0.3,0.1-0.4,0.2-0.5c0.1-0.1,0.4-0.1,0.7-0.1h0.6v-1.7c0-1.3,0.4-2.3,1.2-3
	c0.8-0.7,1.8-1,3.2-1c1.1,0,1.9,0.2,2.4,0.7c0.3,0.2,0.4,0.6,0.4,1c0,0.9-0.5,1.4-1.4,1.4c-0.8,0-1.2-0.5-1.2-1.4v-0.2
	c-0.3-0.1-0.6-0.2-0.9-0.2c-1.3,0-2,0.7-2,2.1c0,0.9,0.2,1.7,0.5,2.4h1.7c0.6,0,0.8,0.2,0.8,0.5c0,0.3-0.1,0.5-0.2,0.7
	c-0.2,0.2-0.3,0.3-0.5,0.3H147v7.4c0,0.4,0.2,0.7,0.7,0.7c0.5,0,0.7,0.2,0.7,0.6c0,0.4-0.3,0.7-0.9,0.8c-0.4,0.1-0.8,0.1-1.2,0.1
	h-0.9c-0.2,0-0.3,0-0.5,0c-0.1,0-0.3,0-0.5,0c-0.2,0-0.4,0-0.5-0.1C143.9,149,143.8,149,143.7,148.9L143.7,148.9z M159.1,134.7
	c0-0.3,0.2-0.7,0.5-1c0.3-0.3,0.7-0.4,1.1-0.4c0.4,0,0.8,0.1,1.1,0.4c0.4,0.2,0.5,0.6,0.5,0.9c0,0.4-0.2,0.7-0.5,1
	c-0.3,0.3-0.7,0.4-1.1,0.4c-0.4,0-0.8-0.1-1.2-0.4C159.3,135.4,159.1,135.1,159.1,134.7L159.1,134.7z M161.6,149.2l-1,0
	c-1,0-1.6-0.2-1.9-0.5c-0.1-0.1-0.2-0.3-0.2-0.5c0-0.2,0.1-0.3,0.2-0.4c0.2-0.1,0.3-0.1,0.5-0.1c0.2,0,0.4-0.1,0.5-0.2
	c0.2-0.1,0.2-0.3,0.2-0.5v-6.2c0-0.7-0.3-1.1-0.8-1.1c-0.1,0-0.1,0-0.2,0l-0.2,0c0,0-0.1,0-0.1,0c-0.1,0-0.1,0-0.1,0
	c0,0-0.1,0-0.1-0.1c-0.1,0-0.1-0.1-0.1-0.3c0-0.2,0.1-0.4,0.3-0.6c0.4-0.4,1-0.5,1.8-0.5c0.7,0,1.1,0,1.2,0.1
	c0.1,0.1,0.2,0.1,0.3,0.2c0.2,0.1,0.2,0.3,0.2,0.6v8.1c0,0.4,0.2,0.7,0.7,0.7c0.5,0,0.7,0.2,0.7,0.6c0,0.4-0.2,0.7-0.7,0.8
	C162.7,149.1,162.2,149.2,161.6,149.2L161.6,149.2z M174.7,149.2l-1,0c-1,0-1.6-0.2-1.9-0.5c-0.1-0.1-0.2-0.3-0.2-0.5
	c0-0.2,0.1-0.3,0.2-0.4c0.2-0.1,0.3-0.1,0.5-0.1c0.2,0,0.4-0.1,0.5-0.2c0.2-0.1,0.2-0.3,0.2-0.5v-12.2c0-0.7-0.3-1.1-0.8-1.1
	c-0.1,0-0.1,0-0.2,0c-0.1,0-0.1,0-0.2,0c0,0-0.1,0-0.1,0c-0.1,0-0.1,0-0.1,0c0,0-0.1,0-0.1-0.1c-0.1,0-0.1-0.1-0.1-0.3
	c0-0.2,0.1-0.4,0.3-0.6c0.4-0.4,1-0.5,1.8-0.5c0.8,0,1.2,0,1.4,0.1c0.3,0.2,0.4,0.4,0.4,0.7V143c0.3-0.2,0.9-0.7,2-1.5
	c2-1.5,3.1-2.3,3.1-2.4c0-0.2-0.3-0.4-0.9-0.5c0-0.7,0.7-1,1.9-1h1.6c1.9,0,2.9,0.1,2.9,0.3c0,0.1-0.1,0.3-0.3,0.5
	c-0.2,0.2-0.4,0.4-0.7,0.5c-0.5,0-1.1,0.2-1.7,0.5c-0.7,0.3-1.5,0.9-2.4,1.6l-2,1.5l3.6,3.8c0.4,0.5,0.8,0.8,1.2,1
	c0.4,0.2,0.7,0.4,1,0.5c0.3,0.1,0.5,0.1,0.7,0.2l0.3,0.1c0.1,0,0.2,0,0.3,0.1c0.1,0,0.2,0.1,0.2,0.1c0.1,0.1,0.2,0.3,0.2,0.4
	c0,0.4-0.6,0.6-1.8,0.6h-0.6c-0.7,0-1.2,0-1.5-0.1c-0.3-0.1-0.6-0.2-0.9-0.5c-1.1-1.1-2.6-2.8-4.3-5.3l-2,1.3v2.2
	c0,0.4,0.2,0.7,0.7,0.7c0.5,0,0.7,0.2,0.7,0.6c0,0.4-0.2,0.7-0.7,0.8C175.8,149.1,175.3,149.2,174.7,149.2L174.7,149.2z
	 M194.6,134.7c0-0.3,0.2-0.7,0.5-1c0.3-0.3,0.7-0.4,1.1-0.4c0.4,0,0.8,0.1,1.1,0.4c0.4,0.2,0.5,0.6,0.5,0.9c0,0.4-0.2,0.7-0.5,1
	c-0.3,0.3-0.7,0.4-1.1,0.4c-0.4,0-0.8-0.1-1.2-0.4C194.8,135.4,194.6,135.1,194.6,134.7L194.6,134.7z M197.1,149.2l-1,0
	c-1,0-1.6-0.2-1.9-0.5c-0.1-0.1-0.2-0.3-0.2-0.5c0-0.2,0.1-0.3,0.2-0.4c0.2-0.1,0.3-0.1,0.5-0.1c0.2,0,0.4-0.1,0.5-0.2
	c0.2-0.1,0.2-0.3,0.2-0.5v-6.2c0-0.7-0.3-1.1-0.8-1.1c-0.1,0-0.1,0-0.2,0l-0.2,0c0,0-0.1,0-0.1,0c-0.1,0-0.1,0-0.1,0
	c0,0-0.1,0-0.1-0.1c-0.1,0-0.1-0.1-0.1-0.3c0-0.2,0.1-0.4,0.3-0.6c0.4-0.4,1-0.5,1.8-0.5c0.7,0,1.1,0,1.2,0.1
	c0.1,0.1,0.2,0.1,0.3,0.2c0.2,0.1,0.2,0.3,0.2,0.6v8.1c0,0.4,0.2,0.7,0.7,0.7c0.5,0,0.7,0.2,0.7,0.6c0,0.4-0.2,0.7-0.7,0.8
	C198.2,149.1,197.7,149.2,197.1,149.2L197.1,149.2z"/>
</svg>
