<?xml version="1.0" encoding="utf-8"?>
<!-- Generator: Adobe Illustrator 26.1.0, SVG Export Plug-In . SVG Version: 6.00 Build 0)  -->
<svg version="1.1" id="Lager_1" xmlns="http://www.w3.org/2000/svg" xmlns:xlink="http://www.w3.org/1999/xlink" x="0px" y="0px"
	 viewBox="0 0 24 24" style="enable-background:new 0 0 24 24;" xml:space="preserve">
<style type="text/css">
	.st0{fill:#FFFFFF;}
</style>
<g>
	<path class="st0" d="M22.2,5.7c-0.8,0.3-1.6,0.6-2.4,0.7C20.6,5.8,21.3,5,21.6,4c-0.8,0.5-1.7,0.8-2.7,1c-1.6-1.7-4.2-1.8-5.9-0.2
		c-1.1,1-1.6,2.6-1.2,4C8.5,8.7,5.3,7.1,3.2,4.5C2.8,5.1,2.6,5.8,2.6,6.6C2.6,8,3.4,9.3,4.5,10c-0.7,0-1.3-0.2-1.9-0.5v0.1
		c0,2,1.4,3.7,3.4,4.1c-0.6,0.2-1.3,0.2-1.9,0.1c0.5,1.7,2.1,2.9,3.9,2.9c-1.8,1.4-4,2-6.2,1.7c1.9,1.2,4.1,1.9,6.4,1.9
		c7.7,0,11.9-6.4,11.9-11.9c0-0.2,0-0.4,0-0.5C20.9,7.2,21.6,6.5,22.2,5.7L22.2,5.7z"/>
</g>
</svg>
